<svg viewBox="0 0 330 200" xmlns="http://www.w3.org/2000/svg"><g><g><g><g><g><line x1="51.5625" y1="176.921875" x2="46.5625" y2="176.921875" style="visibility: inherit;" fill="rgb(0, 0, 0)" stroke="rgb(204, 204, 204)" stroke-width="1px"></line><line x1="51.5625" y1="157.26388888888889" x2="46.5625" y2="157.26388888888889" style="visibility: inherit;" fill="rgb(0, 0, 0)" stroke="rgb(204, 204, 204)" stroke-width="1px"></line><line x1="51.5625" y1="137.60590277777777" x2="46.5625" y2="137.60590277777777" style="visibility: inherit;" fill="rgb(0, 0, 0)" stroke="rgb(204, 204, 204)" stroke-width="1px"></line><line x1="51.5625" y1="117.94791666666666" x2="46.5625" y2="117.94791666666666" style="visibility: inherit;" fill="rgb(0, 0, 0)" stroke="rgb(204, 204, 204)" stroke-width="1px"></line><line x1="51.5625" y1="98.28993055555556" x2="46.5625" y2="98.28993055555556" style="visibility: inherit;" fill="rgb(0, 0, 0)" stroke="rgb(204, 204, 204)" stroke-width="1px"></line><line x1="51.5625" y1="78.63194444444444" x2="46.5625" y2="78.63194444444444" style="visibility: inherit;" fill="rgb(0, 0, 0)" stroke="rgb(204, 204, 204)" stroke-width="1px"></line><line x1="51.5625" y1="58.97395833333334" x2="46.5625" y2="58.97395833333334" style="visibility: inherit;" fill="rgb(0, 0, 0)" stroke="rgb(204, 204, 204)" stroke-width="1px"></line><line x1="51.5625" y1="39.31597222222224" x2="46.5625" y2="39.31597222222224" style="visibility: inherit;" fill="rgb(0, 0, 0)" stroke="rgb(204, 204, 204)" stroke-width="1px"></line><line x1="51.5625" y1="19.65798611111112" x2="46.5625" y2="19.65798611111112" style="visibility: inherit;" fill="rgb(0, 0, 0)" stroke="rgb(204, 204, 204)" stroke-width="1px"></line><line x1="51.5625" y1="0" x2="46.5625" y2="0" style="visibility: inherit;" fill="rgb(0, 0, 0)" stroke="rgb(204, 204, 204)" stroke-width="1px"></line></g><g transform="translate(41.5625, 0)"><text x="0" y="176.921875" dx="0em" dy="0.3em" style="text-anchor: end; visibility: hidden; font-family: Roboto, sans-serif; font-size: 12px; font-weight: 200;" fill="rgb(33, 33, 33)" stroke="none" stroke-width="1px">-0.2</text><text x="0" y="157.26388888888889" dx="0em" dy="0.3em" style="text-anchor: end; visibility: inherit; font-family: Roboto, sans-serif; font-size: 12px; font-weight: 200;" fill="rgb(33, 33, 33)" stroke="none" stroke-width="1px">0</text><text x="0" y="137.60590277777777" dx="0em" dy="0.3em" style="text-anchor: end; visibility: hidden; font-family: Roboto, sans-serif; font-size: 12px; font-weight: 200;" fill="rgb(33, 33, 33)" stroke="none" stroke-width="1px">0.2</text><text x="0" y="117.94791666666666" dx="0em" dy="0.3em" style="text-anchor: end; visibility: inherit; font-family: Roboto, sans-serif; font-size: 12px; font-weight: 200;" fill="rgb(33, 33, 33)" stroke="none" stroke-width="1px">0.4</text><text x="0" y="98.28993055555556" dx="0em" dy="0.3em" style="text-anchor: end; visibility: hidden; font-family: Roboto, sans-serif; font-size: 12px; font-weight: 200;" fill="rgb(33, 33, 33)" stroke="none" stroke-width="1px">0.6</text><text x="0" y="78.63194444444444" dx="0em" dy="0.3em" style="text-anchor: end; visibility: inherit; font-family: Roboto, sans-serif; font-size: 12px; font-weight: 200;" fill="rgb(33, 33, 33)" stroke="none" stroke-width="1px">0.8</text><text x="0" y="58.97395833333334" dx="0em" dy="0.3em" style="text-anchor: end; visibility: hidden; font-family: Roboto, sans-serif; font-size: 12px; font-weight: 200;" fill="rgb(33, 33, 33)" stroke="none" stroke-width="1px">1</text><text x="0" y="39.31597222222224" dx="0em" dy="0.3em" style="text-anchor: end; visibility: inherit; font-family: Roboto, sans-serif; font-size: 12px; font-weight: 200;" fill="rgb(33, 33, 33)" stroke="none" stroke-width="1px">1.2</text><text x="0" y="19.65798611111112" dx="0em" dy="0.3em" style="text-anchor: end; visibility: hidden; font-family: Roboto, sans-serif; font-size: 12px; font-weight: 200;" fill="rgb(33, 33, 33)" stroke="none" stroke-width="1px">1.4</text><text x="0" y="0" dx="0em" dy="0.3em" style="text-anchor: end; visibility: hidden; font-family: Roboto, sans-serif; font-size: 12px; font-weight: 200;" fill="rgb(33, 33, 33)" stroke="none" stroke-width="1px">1.6</text></g><line x1="51.5625" y1="0" x2="51.5625" y2="176.921875" fill="rgb(0, 0, 0)" stroke="rgb(204, 204, 204)" stroke-width="1px"></line></g></g><g transform="translate(51, 0)" clip-path="url(#clip_0)"><clipPath id="clip_0"><rect width="278" height="176"></rect></clipPath><g><g><g><line x1="0" y1="0" x2="0" y2="176.921875" fill="rgb(0, 0, 0)" stroke="rgb(66, 66, 66)" stroke-width="1px" opacity="0.25"></line><line x1="23.203125" y1="0" x2="23.203125" y2="176.921875" fill="rgb(0, 0, 0)" stroke="rgb(66, 66, 66)" stroke-width="1px" opacity="0.25"></line><line x1="46.40625" y1="0" x2="46.40625" y2="176.921875" fill="rgb(0, 0, 0)" stroke="rgb(66, 66, 66)" stroke-width="1px" opacity="0.25"></line><line x1="69.609375" y1="0" x2="69.609375" y2="176.921875" fill="rgb(0, 0, 0)" stroke="rgb(66, 66, 66)" stroke-width="1px" opacity="0.25"></line><line x1="92.8125" y1="0" x2="92.8125" y2="176.921875" fill="rgb(0, 0, 0)" stroke="rgb(66, 66, 66)" stroke-width="1px" opacity="0.25"></line><line x1="116.015625" y1="0" x2="116.015625" y2="176.921875" fill="rgb(0, 0, 0)" stroke="rgb(66, 66, 66)" stroke-width="1px" opacity="0.25"></line><line x1="139.21875" y1="0" x2="139.21875" y2="176.921875" fill="rgb(0, 0, 0)" stroke="rgb(66, 66, 66)" stroke-width="1px" opacity="0.25"></line><line x1="162.421875" y1="0" x2="162.421875" y2="176.921875" fill="rgb(0, 0, 0)" stroke="rgb(66, 66, 66)" stroke-width="1px" opacity="0.25"></line><line x1="185.625" y1="0" x2="185.625" y2="176.921875" fill="rgb(0, 0, 0)" stroke="rgb(66, 66, 66)" stroke-width="1px" opacity="0.25"></line><line x1="208.828125" y1="0" x2="208.828125" y2="176.921875" fill="rgb(0, 0, 0)" stroke="rgb(66, 66, 66)" stroke-width="1px" opacity="0.25"></line><line x1="232.03125" y1="0" x2="232.03125" y2="176.921875" fill="rgb(0, 0, 0)" stroke="rgb(66, 66, 66)" stroke-width="1px" opacity="0.25"></line><line x1="255.234375" y1="0" x2="255.234375" y2="176.921875" fill="rgb(0, 0, 0)" stroke="rgb(66, 66, 66)" stroke-width="1px" opacity="0.25"></line><line x1="278.4375" y1="0" x2="278.4375" y2="176.921875" fill="rgb(0, 0, 0)" stroke="rgb(66, 66, 66)" stroke-width="1px" opacity="0.25"></line></g><g><line x1="0" y1="176.921875" x2="278.4375" y2="176.921875" fill="rgb(0, 0, 0)" stroke="rgb(66, 66, 66)" stroke-width="1px" opacity="0.25"></line><line x1="0" y1="157.26388888888889" x2="278.4375" y2="157.26388888888889" fill="rgb(0, 0, 0)" stroke="rgb(66, 66, 66)" stroke-width="1px" opacity="0.25"></line><line x1="0" y1="137.60590277777777" x2="278.4375" y2="137.60590277777777" fill="rgb(0, 0, 0)" stroke="rgb(66, 66, 66)" stroke-width="1px" opacity="0.25"></line><line x1="0" y1="117.94791666666666" x2="278.4375" y2="117.94791666666666" fill="rgb(0, 0, 0)" stroke="rgb(66, 66, 66)" stroke-width="1px" opacity="0.25"></line><line x1="0" y1="98.28993055555556" x2="278.4375" y2="98.28993055555556" fill="rgb(0, 0, 0)" stroke="rgb(66, 66, 66)" stroke-width="1px" opacity="0.25"></line><line x1="0" y1="78.63194444444444" x2="278.4375" y2="78.63194444444444" fill="rgb(0, 0, 0)" stroke="rgb(66, 66, 66)" stroke-width="1px" opacity="0.25"></line><line x1="0" y1="58.97395833333334" x2="278.4375" y2="58.97395833333334" fill="rgb(0, 0, 0)" stroke="rgb(66, 66, 66)" stroke-width="1px" opacity="0.25"></line><line x1="0" y1="39.31597222222224" x2="278.4375" y2="39.31597222222224" fill="rgb(0, 0, 0)" stroke="rgb(66, 66, 66)" stroke-width="1px" opacity="0.25"></line><line x1="0" y1="19.65798611111112" x2="278.4375" y2="19.65798611111112" fill="rgb(0, 0, 0)" stroke="rgb(66, 66, 66)" stroke-width="1px" opacity="0.25"></line><line x1="0" y1="0" x2="278.4375" y2="0" fill="rgb(0, 0, 0)" stroke="rgb(66, 66, 66)" stroke-width="1px" opacity="0.25"></line></g></g></g><g><g><line x1="0" y1="157.26388888888889" x2="278.4375" y2="157.26388888888889" fill="rgb(0, 0, 0)" stroke="rgb(153, 153, 153)" stroke-width="1.5px"></line></g></g><g><g><line x1="23.203125" y1="0" x2="23.203125" y2="176.921875" fill="rgb(0, 0, 0)" stroke="rgb(153, 153, 153)" stroke-width="1.5px"></line></g></g><g><g><g><g><g><path stroke="rgb(0, 119, 187)" stroke-width="2px" d="M27.84375,-3.807309895805605L30.1640625,6.420856222898934L32.484375,13.432540539792136L34.8046875,17.047352350122377L37.125,17.738964101736357L39.4453125,16.602763588054394L41.765625,14.748741128485829L44.0859375,13.966667655630314L46.40625,12.044934650953282L48.7265625,11.756309551025032L51.04687499999999,10.875504523310358L53.36718750000001,11.480754928962643L55.6875,12.435195155237498L58.0078125,14.516358361603409L60.328125,15.734167829220612L62.6484375,17.828333317074254L64.96875,19.61315562884986L67.2890625,21.972111488145703L69.609375,23.350562553606903L71.92968750000001,25.165892091680547L74.25,26.455283615953622L76.5703125,27.656617011313834L78.890625,29.704872564179343L81.2109375,32.02708661283183L83.53125,34.34000106579393L85.8515625,36.45444549763465L88.171875,38.15574754631041L90.4921875,40.17943023125465L92.8125,42.69493775692178L95.1328125,45.004124400524766L97.453125,46.46297569850772L99.7734375,48.049761157353245L102.09374999999999,50.919650105826875L104.4140625,52.99389237303856L106.73437500000001,55.39039236026681L109.0546875,58.00118304754681L111.375,60.449029728712574L113.6953125,63.55491276128165L116.015625,66.55885824247424L118.3359375,69.45887622178104L120.65625,72.75208811738094L122.9765625,75.72107701114246L125.296875,79.34902712057988L127.6171875,82.97353057913648L129.9375,86.57876538440652L132.2578125,90.64630788586236L134.578125,94.95120714097632L136.8984375,99.60880441028173L139.21875,104.46567186509748L141.5390625,109.51821319266732L143.85937500000003,114.52730335349055L146.1796875,119.36895047250353L148.5,123.95511137827911L150.8203125,128.6836954533729L153.140625,132.73507619230145L155.4609375,136.3089414093966L157.78125,139.61260103432787L160.1015625,142.3493405599885L162.421875,144.82811801903662L164.7421875,146.51833796277518L167.0625,147.87162528779803L169.38281249999997,149.29287858419067L171.703125,150.6575169574109L174.0234375,151.29597613510586L176.34375,152.25158648465685L178.66406250000003,152.72554651345826L180.984375,153.21262876881295L183.3046875,153.8902951205278L185.625,154.46759539944685L187.9453125,154.8725341279519L190.265625,154.93522697796232L192.5859375,155.4568248012685L194.90625,155.75244252044757L197.2265625,155.88150999537805L199.546875,156.25187964353898L201.8671875,156.42837182104967L204.18749999999997,156.40758795845466L206.5078125,156.66835982416583L208.828125,156.87659450017918L211.1484375,157.01346390378146L213.46875000000003,157.10480988987877L215.7890625,157.16222506974498L218.109375,157.19879368599908L220.4296875,157.22172810194272L222.75,157.18703889380504L225.0703125,157.1704960039519L227.390625,157.20113972776622L229.7109375,157.22192915599712L232.03125,157.23547344129588L234.3515625,157.24407277919858L236.671875,157.24966879398522L238.99218749999997,157.2532713963794L241.3125,157.2553245994939L243.6328125,157.25678915860792L245.953125,157.25809603322716L248.27343750000003,157.25899312004904L250.59375,157.2596101721743L252.9140625,157.26001903231563L255.234375,157.26028198436853" style="fill: none;" fill="none"></path></g></g></g></g><g opacity="0.2"><g><g><g><path stroke="rgb(0, 119, 187)" stroke-width="2px" d="M25.523437499999996,-20.12387567261856L27.84375,5.982629570282176L30.1640625,16.239895696855264L32.484375,21.678281296458525L34.8046875,21.76685064968964L37.125,18.695712134449035L39.4453125,14.97797867428098L41.765625,12.045558583819215L44.0859375,12.813261193119828L46.40625,9.191385105459243L48.7265625,11.325989709546175L51.04687499999999,9.559090283802822L53.36718750000001,12.386654289853256L55.6875,13.864985646886975L58.0078125,17.635656841927116L60.328125,17.560023137057833L62.6484375,20.968695368203857L64.96875,22.289935930321626L67.2890625,25.510185913907158L69.609375,25.418113155911378L71.92968750000001,27.888786841804794L74.25,28.389328474385888L76.5703125,29.458593386121933L78.890625,32.77723162993789L81.2109375,35.51039118050702L83.53125,37.809362881713454L85.8515625,39.62610673511194L88.171875,40.70769800742468L90.4921875,43.214952394573245L92.8125,46.4681976551397L95.1328125,48.46790360017784L97.453125,48.65125235521959L99.7734375,50.42993915619122L102.09374999999999,55.224483322973065L104.4140625,56.10525568471188L106.73437500000001,58.98514227931285L109.0546875,61.91736903807355L111.375,64.1207997277379L113.6953125,68.21373729283613L116.015625,71.06477645422436L118.3359375,73.80890318492634L120.65625,77.69190595681883L122.9765625,80.17456034964157L125.296875,84.79095228316469L127.6171875,88.41028576602953L129.9375,91.98661759174946L132.2578125,96.74762163766557L134.578125,101.40855602340567L136.8984375,106.59520031408304L139.21875,111.75097304722294L141.5390625,117.0970251839608L143.85937500000003,122.04093859468898L146.1796875,126.63142115100183L148.5,130.83435273693047L150.8203125,135.77657156600617L153.140625,138.8121473006904L155.4609375,141.66973923503733L157.78125,144.56809047172365L160.1015625,146.45444984847887L162.421875,148.54628420760855L164.7421875,149.05366787838284L167.0625,149.90155627533224L169.38281249999997,151.42475852877962L171.703125,152.70447451724127L174.0234375,152.25366490164825L176.34375,153.68500200898333L178.66406250000003,153.43648655666038L180.984375,153.94325215184492L183.3046875,154.9067946481001L185.625,155.3335458178254L187.9453125,155.47994222070943L190.265625,155.02926625297792L192.5859375,156.2392215362278L194.90625,156.1958690992162L197.2265625,156.07511120777377L199.546875,156.80743411578038L201.8671875,156.6931100873157L204.18749999999997,156.37641216456217L206.5078125,157.05951762273253L208.828125,157.18894651419922L211.1484375,157.2187680091849L213.46875000000003,157.24182886902477L215.7890625,157.2483478395443L218.109375,157.25364661038023L220.4296875,157.25612972585816L222.75,157.13500508159854L225.0703125,157.1456816691722L227.390625,157.24710531348765L229.7109375,157.2531132983435L232.03125,157.255789869244L234.3515625,157.25697178605267L236.671875,157.25806281616514L238.99218749999997,157.2586752999707L241.3125,157.2584044041656L243.6328125,157.25898599727898L245.953125,157.26005634515604L248.27343750000003,157.26033875028187L250.59375,157.26053575036215L252.9140625,157.26063232252758L255.234375,157.2606764124479" style="fill: none;" fill="none"></path></g></g></g></g></g></g><g transform="translate(51, 176)" clip-path="url(#clip_1)"><clipPath id="clip_1"><rect width="278" height="23"></rect></clipPath><g><g><line x1="0" y1="0" x2="0" y2="5" style="visibility: inherit;" fill="rgb(0, 0, 0)" stroke="rgb(204, 204, 204)" stroke-width="1px"></line><line x1="23.203125" y1="0" x2="23.203125" y2="5" style="visibility: inherit;" fill="rgb(0, 0, 0)" stroke="rgb(204, 204, 204)" stroke-width="1px"></line><line x1="46.40625" y1="0" x2="46.40625" y2="5" style="visibility: inherit;" fill="rgb(0, 0, 0)" stroke="rgb(204, 204, 204)" stroke-width="1px"></line><line x1="69.609375" y1="0" x2="69.609375" y2="5" style="visibility: inherit;" fill="rgb(0, 0, 0)" stroke="rgb(204, 204, 204)" stroke-width="1px"></line><line x1="92.8125" y1="0" x2="92.8125" y2="5" style="visibility: inherit;" fill="rgb(0, 0, 0)" stroke="rgb(204, 204, 204)" stroke-width="1px"></line><line x1="116.015625" y1="0" x2="116.015625" y2="5" style="visibility: inherit;" fill="rgb(0, 0, 0)" stroke="rgb(204, 204, 204)" stroke-width="1px"></line><line x1="139.21875" y1="0" x2="139.21875" y2="5" style="visibility: inherit;" fill="rgb(0, 0, 0)" stroke="rgb(204, 204, 204)" stroke-width="1px"></line><line x1="162.421875" y1="0" x2="162.421875" y2="5" style="visibility: inherit;" fill="rgb(0, 0, 0)" stroke="rgb(204, 204, 204)" stroke-width="1px"></line><line x1="185.625" y1="0" x2="185.625" y2="5" style="visibility: inherit;" fill="rgb(0, 0, 0)" stroke="rgb(204, 204, 204)" stroke-width="1px"></line><line x1="208.828125" y1="0" x2="208.828125" y2="5" style="visibility: inherit;" fill="rgb(0, 0, 0)" stroke="rgb(204, 204, 204)" stroke-width="1px"></line><line x1="232.03125" y1="0" x2="232.03125" y2="5" style="visibility: inherit;" fill="rgb(0, 0, 0)" stroke="rgb(204, 204, 204)" stroke-width="1px"></line><line x1="255.234375" y1="0" x2="255.234375" y2="5" style="visibility: inherit;" fill="rgb(0, 0, 0)" stroke="rgb(204, 204, 204)" stroke-width="1px"></line><line x1="278.4375" y1="0" x2="278.4375" y2="5" style="visibility: inherit;" fill="rgb(0, 0, 0)" stroke="rgb(204, 204, 204)" stroke-width="1px"></line></g><g transform="translate(0, 8)"><text x="0" y="0" dx="0em" dy="0.95em" style="text-anchor: middle; visibility: hidden; font-family: Roboto, sans-serif; font-size: 12px; font-weight: 200;" fill="rgb(33, 33, 33)" stroke="none" stroke-width="1px">-10</text><text x="23.203125" y="0" dx="0em" dy="0.95em" style="text-anchor: middle; visibility: inherit; font-family: Roboto, sans-serif; font-size: 12px; font-weight: 200;" fill="rgb(33, 33, 33)" stroke="none" stroke-width="1px">0</text><text x="46.40625" y="0" dx="0em" dy="0.95em" style="text-anchor: middle; visibility: inherit; font-family: Roboto, sans-serif; font-size: 12px; font-weight: 200;" fill="rgb(33, 33, 33)" stroke="none" stroke-width="1px">10</text><text x="69.609375" y="0" dx="0em" dy="0.95em" style="text-anchor: middle; visibility: inherit; font-family: Roboto, sans-serif; font-size: 12px; font-weight: 200;" fill="rgb(33, 33, 33)" stroke="none" stroke-width="1px">20</text><text x="92.8125" y="0" dx="0em" dy="0.95em" style="text-anchor: middle; visibility: inherit; font-family: Roboto, sans-serif; font-size: 12px; font-weight: 200;" fill="rgb(33, 33, 33)" stroke="none" stroke-width="1px">30</text><text x="116.015625" y="0" dx="0em" dy="0.95em" style="text-anchor: middle; visibility: inherit; font-family: Roboto, sans-serif; font-size: 12px; font-weight: 200;" fill="rgb(33, 33, 33)" stroke="none" stroke-width="1px">40</text><text x="139.21875" y="0" dx="0em" dy="0.95em" style="text-anchor: middle; visibility: inherit; font-family: Roboto, sans-serif; font-size: 12px; font-weight: 200;" fill="rgb(33, 33, 33)" stroke="none" stroke-width="1px">50</text><text x="162.421875" y="0" dx="0em" dy="0.95em" style="text-anchor: middle; visibility: inherit; font-family: Roboto, sans-serif; font-size: 12px; font-weight: 200;" fill="rgb(33, 33, 33)" stroke="none" stroke-width="1px">60</text><text x="185.625" y="0" dx="0em" dy="0.95em" style="text-anchor: middle; visibility: inherit; font-family: Roboto, sans-serif; font-size: 12px; font-weight: 200;" fill="rgb(33, 33, 33)" stroke="none" stroke-width="1px">70</text><text x="208.828125" y="0" dx="0em" dy="0.95em" style="text-anchor: middle; visibility: inherit; font-family: Roboto, sans-serif; font-size: 12px; font-weight: 200;" fill="rgb(33, 33, 33)" stroke="none" stroke-width="1px">80</text><text x="232.03125" y="0" dx="0em" dy="0.95em" style="text-anchor: middle; visibility: inherit; font-family: Roboto, sans-serif; font-size: 12px; font-weight: 200;" fill="rgb(33, 33, 33)" stroke="none" stroke-width="1px">90</text><text x="255.234375" y="0" dx="0em" dy="0.95em" style="text-anchor: middle; visibility: inherit; font-family: Roboto, sans-serif; font-size: 12px; font-weight: 200;" fill="rgb(33, 33, 33)" stroke="none" stroke-width="1px">100</text><text x="278.4375" y="0" dx="0em" dy="0.95em" style="text-anchor: middle; visibility: hidden; font-family: Roboto, sans-serif; font-size: 12px; font-weight: 200;" fill="rgb(33, 33, 33)" stroke="none" stroke-width="1px">110</text></g><line x1="0" y1="0" x2="278.4375" y2="0" fill="rgb(0, 0, 0)" stroke="rgb(204, 204, 204)" stroke-width="1px"></line></g></g></g></g></svg>