<svg viewBox="0 0 330 200" xmlns="http://www.w3.org/2000/svg"><g><g><g><g><g><line x1="51.5625" y1="176.921875" x2="46.5625" y2="176.921875" style="visibility: inherit;" fill="rgb(0, 0, 0)" stroke="rgb(204, 204, 204)" stroke-width="1px"></line><line x1="51.5625" y1="157.26388888888889" x2="46.5625" y2="157.26388888888889" style="visibility: inherit;" fill="rgb(0, 0, 0)" stroke="rgb(204, 204, 204)" stroke-width="1px"></line><line x1="51.5625" y1="137.60590277777777" x2="46.5625" y2="137.60590277777777" style="visibility: inherit;" fill="rgb(0, 0, 0)" stroke="rgb(204, 204, 204)" stroke-width="1px"></line><line x1="51.5625" y1="117.94791666666666" x2="46.5625" y2="117.94791666666666" style="visibility: inherit;" fill="rgb(0, 0, 0)" stroke="rgb(204, 204, 204)" stroke-width="1px"></line><line x1="51.5625" y1="98.28993055555556" x2="46.5625" y2="98.28993055555556" style="visibility: inherit;" fill="rgb(0, 0, 0)" stroke="rgb(204, 204, 204)" stroke-width="1px"></line><line x1="51.5625" y1="78.63194444444444" x2="46.5625" y2="78.63194444444444" style="visibility: inherit;" fill="rgb(0, 0, 0)" stroke="rgb(204, 204, 204)" stroke-width="1px"></line><line x1="51.5625" y1="58.97395833333334" x2="46.5625" y2="58.97395833333334" style="visibility: inherit;" fill="rgb(0, 0, 0)" stroke="rgb(204, 204, 204)" stroke-width="1px"></line><line x1="51.5625" y1="39.31597222222224" x2="46.5625" y2="39.31597222222224" style="visibility: inherit;" fill="rgb(0, 0, 0)" stroke="rgb(204, 204, 204)" stroke-width="1px"></line><line x1="51.5625" y1="19.65798611111112" x2="46.5625" y2="19.65798611111112" style="visibility: inherit;" fill="rgb(0, 0, 0)" stroke="rgb(204, 204, 204)" stroke-width="1px"></line><line x1="51.5625" y1="0" x2="46.5625" y2="0" style="visibility: inherit;" fill="rgb(0, 0, 0)" stroke="rgb(204, 204, 204)" stroke-width="1px"></line></g><g transform="translate(41.5625, 0)"><text x="0" y="176.921875" dx="0em" dy="0.3em" style="text-anchor: end; visibility: hidden; font-family: Roboto, sans-serif; font-size: 12px; font-weight: 200;" fill="rgb(33, 33, 33)" stroke="none" stroke-width="1px">-0.2</text><text x="0" y="157.26388888888889" dx="0em" dy="0.3em" style="text-anchor: end; visibility: inherit; font-family: Roboto, sans-serif; font-size: 12px; font-weight: 200;" fill="rgb(33, 33, 33)" stroke="none" stroke-width="1px">0</text><text x="0" y="137.60590277777777" dx="0em" dy="0.3em" style="text-anchor: end; visibility: hidden; font-family: Roboto, sans-serif; font-size: 12px; font-weight: 200;" fill="rgb(33, 33, 33)" stroke="none" stroke-width="1px">0.2</text><text x="0" y="117.94791666666666" dx="0em" dy="0.3em" style="text-anchor: end; visibility: inherit; font-family: Roboto, sans-serif; font-size: 12px; font-weight: 200;" fill="rgb(33, 33, 33)" stroke="none" stroke-width="1px">0.4</text><text x="0" y="98.28993055555556" dx="0em" dy="0.3em" style="text-anchor: end; visibility: hidden; font-family: Roboto, sans-serif; font-size: 12px; font-weight: 200;" fill="rgb(33, 33, 33)" stroke="none" stroke-width="1px">0.6</text><text x="0" y="78.63194444444444" dx="0em" dy="0.3em" style="text-anchor: end; visibility: inherit; font-family: Roboto, sans-serif; font-size: 12px; font-weight: 200;" fill="rgb(33, 33, 33)" stroke="none" stroke-width="1px">0.8</text><text x="0" y="58.97395833333334" dx="0em" dy="0.3em" style="text-anchor: end; visibility: hidden; font-family: Roboto, sans-serif; font-size: 12px; font-weight: 200;" fill="rgb(33, 33, 33)" stroke="none" stroke-width="1px">1</text><text x="0" y="39.31597222222224" dx="0em" dy="0.3em" style="text-anchor: end; visibility: inherit; font-family: Roboto, sans-serif; font-size: 12px; font-weight: 200;" fill="rgb(33, 33, 33)" stroke="none" stroke-width="1px">1.2</text><text x="0" y="19.65798611111112" dx="0em" dy="0.3em" style="text-anchor: end; visibility: hidden; font-family: Roboto, sans-serif; font-size: 12px; font-weight: 200;" fill="rgb(33, 33, 33)" stroke="none" stroke-width="1px">1.4</text><text x="0" y="0" dx="0em" dy="0.3em" style="text-anchor: end; visibility: hidden; font-family: Roboto, sans-serif; font-size: 12px; font-weight: 200;" fill="rgb(33, 33, 33)" stroke="none" stroke-width="1px">1.6</text></g><line x1="51.5625" y1="0" x2="51.5625" y2="176.921875" fill="rgb(0, 0, 0)" stroke="rgb(204, 204, 204)" stroke-width="1px"></line></g></g><g transform="translate(51, 0)" clip-path="url(#clip_0)"><clipPath id="clip_0"><rect width="278" height="176"></rect></clipPath><g><g><g><line x1="0" y1="0" x2="0" y2="176.921875" fill="rgb(0, 0, 0)" stroke="rgb(66, 66, 66)" stroke-width="1px" opacity="0.25"></line><line x1="27.84375" y1="0" x2="27.84375" y2="176.921875" fill="rgb(0, 0, 0)" stroke="rgb(66, 66, 66)" stroke-width="1px" opacity="0.25"></line><line x1="55.6875" y1="0" x2="55.6875" y2="176.921875" fill="rgb(0, 0, 0)" stroke="rgb(66, 66, 66)" stroke-width="1px" opacity="0.25"></line><line x1="83.53125" y1="0" x2="83.53125" y2="176.921875" fill="rgb(0, 0, 0)" stroke="rgb(66, 66, 66)" stroke-width="1px" opacity="0.25"></line><line x1="111.375" y1="0" x2="111.375" y2="176.921875" fill="rgb(0, 0, 0)" stroke="rgb(66, 66, 66)" stroke-width="1px" opacity="0.25"></line><line x1="139.21875" y1="0" x2="139.21875" y2="176.921875" fill="rgb(0, 0, 0)" stroke="rgb(66, 66, 66)" stroke-width="1px" opacity="0.25"></line><line x1="167.0625" y1="0" x2="167.0625" y2="176.921875" fill="rgb(0, 0, 0)" stroke="rgb(66, 66, 66)" stroke-width="1px" opacity="0.25"></line><line x1="194.90625" y1="0" x2="194.90625" y2="176.921875" fill="rgb(0, 0, 0)" stroke="rgb(66, 66, 66)" stroke-width="1px" opacity="0.25"></line><line x1="222.75" y1="0" x2="222.75" y2="176.921875" fill="rgb(0, 0, 0)" stroke="rgb(66, 66, 66)" stroke-width="1px" opacity="0.25"></line><line x1="250.59375" y1="0" x2="250.59375" y2="176.921875" fill="rgb(0, 0, 0)" stroke="rgb(66, 66, 66)" stroke-width="1px" opacity="0.25"></line><line x1="278.4375" y1="0" x2="278.4375" y2="176.921875" fill="rgb(0, 0, 0)" stroke="rgb(66, 66, 66)" stroke-width="1px" opacity="0.25"></line></g><g><line x1="0" y1="176.921875" x2="278.4375" y2="176.921875" fill="rgb(0, 0, 0)" stroke="rgb(66, 66, 66)" stroke-width="1px" opacity="0.25"></line><line x1="0" y1="157.26388888888889" x2="278.4375" y2="157.26388888888889" fill="rgb(0, 0, 0)" stroke="rgb(66, 66, 66)" stroke-width="1px" opacity="0.25"></line><line x1="0" y1="137.60590277777777" x2="278.4375" y2="137.60590277777777" fill="rgb(0, 0, 0)" stroke="rgb(66, 66, 66)" stroke-width="1px" opacity="0.25"></line><line x1="0" y1="117.94791666666666" x2="278.4375" y2="117.94791666666666" fill="rgb(0, 0, 0)" stroke="rgb(66, 66, 66)" stroke-width="1px" opacity="0.25"></line><line x1="0" y1="98.28993055555556" x2="278.4375" y2="98.28993055555556" fill="rgb(0, 0, 0)" stroke="rgb(66, 66, 66)" stroke-width="1px" opacity="0.25"></line><line x1="0" y1="78.63194444444444" x2="278.4375" y2="78.63194444444444" fill="rgb(0, 0, 0)" stroke="rgb(66, 66, 66)" stroke-width="1px" opacity="0.25"></line><line x1="0" y1="58.97395833333334" x2="278.4375" y2="58.97395833333334" fill="rgb(0, 0, 0)" stroke="rgb(66, 66, 66)" stroke-width="1px" opacity="0.25"></line><line x1="0" y1="39.31597222222224" x2="278.4375" y2="39.31597222222224" fill="rgb(0, 0, 0)" stroke="rgb(66, 66, 66)" stroke-width="1px" opacity="0.25"></line><line x1="0" y1="19.65798611111112" x2="278.4375" y2="19.65798611111112" fill="rgb(0, 0, 0)" stroke="rgb(66, 66, 66)" stroke-width="1px" opacity="0.25"></line><line x1="0" y1="0" x2="278.4375" y2="0" fill="rgb(0, 0, 0)" stroke="rgb(66, 66, 66)" stroke-width="1px" opacity="0.25"></line></g></g></g><g><g><line x1="0" y1="157.26388888888889" x2="278.4375" y2="157.26388888888889" fill="rgb(0, 0, 0)" stroke="rgb(153, 153, 153)" stroke-width="1.5px"></line></g></g><g><g><line x1="27.84375" y1="0" x2="27.84375" y2="176.921875" fill="rgb(0, 0, 0)" stroke="rgb(153, 153, 153)" stroke-width="1.5px"></line></g></g><g><g><g><g><g><path stroke="rgb(0, 119, 187)" stroke-width="2px" d="M29.47539375,-5.453099682556815L29.60904375,2.294416191154925L29.645240625,-7.092703214723493L30.66710625,-2.0215694457584252L30.81189375,7.899464442871157L30.9177,3.537907961650465L31.129312499999997,7.144255096060353L31.354846875,6.831990968019993L31.5079875,-1.9085493727051865L31.700109375,-1.3477425815541235L31.7196,14.611999696085554L31.842112500000002,13.109077174558202L32.1651,12.051271114542185L32.552128125,9.625346974116683L32.67185625,19.073035286448544L32.680209375000004,25.3912051327032L32.9781375,11.117722249250468L33.070021875,12.758645345308677L33.181396875,13.179697042832892L33.5127375,17.863007915117326L33.6798,15.831940509818395L33.966590625,17.621335118803877L34.14200625,23.526342812167215L34.267303125,10.971101761254415L34.495621875,17.894551848149668L34.626487499999996,29.83265298889575L34.762921875,18.114931905832538L34.76570625,25.7448272781512L34.79911875,20.08177104524949L34.893787499999995,14.490229442898352L35.319796874999994,17.590680444375273L35.4729375,21.746545886084444L36.104990625,23.802357493066488L36.30268125,21.875056274663233L36.645159375,17.668866787689343L36.837281250000004,19.734022796753788L36.88183125,23.707693718569573L36.884615625,23.142427840284L37.046109375,26.14009848434524L37.917618749999995,15.90895564840098L37.9231875,12.20637592457894L38.062406249999995,11.281565909782003L38.260096875,8.593825827491962L38.463356250000004,7.209805302426124L38.482846875,14.726251324080433L38.780775,17.674772119311314L38.8587375,20.11606025469569L39.0814875,25.10529582381276L39.254118749999996,22.428626937084907L39.526987500000004,25.98915168174252L39.627225,20.01171232478705L39.863896874999995,24.9824753722065L40.095,18.891681966497618L40.3511625,16.0086251878624L40.398496875,17.728245795385483L40.841212500000005,14.949733885165582L40.8634875,17.287639389904264L41.175337500000005,13.566356782482556L41.214318750000004,5.327528188993423L41.684878125000004,14.473523634478742L42.06076875,17.44031454823067L42.13873125,20.86083084241541L42.726234375000004,18.888565143322896L42.765215625,12.2734144928312L43.294246875,10.634751457358737L43.656215625,15.058439057185794L43.778728125,4.173705237691987L44.0154,8.622582346748562L44.171325,14.404024074389634L44.190815625,17.363266746979747L44.291053125,7.447709279145542L44.522156249999995,12.147853532812443L45.106875,29.27884002771199L45.159778125,23.70341224262515L45.354684375000005,17.317092438773688L45.596925,16.666748281791968L46.14823125,21.360448440629654L46.228978125000005,28.338033806132994L46.496278124999996,27.115909235601926L46.529690625,33.459554299369636L46.92785625,18.92637585116073L47.239706250000005,21.912574393625917L47.651793749999996,14.65252670961506L47.765953125,13.52892446483903L48.39800625,14.335130902258271L48.615187500000005,14.57528025551966L48.623540625000004,22.84547855277789L48.66530625,23.161201689312445L48.757190625,9.427397325255882L49.5284625,9.395355385562837L49.55630625,6.506108230729206L49.653759375,13.798741347171454L50.093690624999994,11.42341255747266L50.30251875,13.7496892266319L50.6199375,2.9403147997168233L50.734096875000006,1.8116889555611149L51.129478125,12.490006747902907L51.1434,5.693346798920209L51.168459375,5.2640285494944745L51.50536875,11.170081884262919L51.5332125,4.193910338754883L51.792159375000004,6.523110790847342L52.56343125,4.210063763654057L52.70265,16.78001103707569L52.722140624999994,15.429166401128468L52.883634375,11.641731056392496L53.6270625,2.4943101969283625L54.2062125,14.57399137609401L54.445668749999996,17.01093872124207L54.481865625000005,17.01237247121549L54.7965,15.936058785329227L54.84661875,20.983975876357157L55.250353125,20.19454923600778L55.428553125,22.692366345874078L56.4559875,14.898611753507733L56.475478125,13.007530634778655L56.798465625,10.37891300115991L57.021215624999996,10.821620478544679L57.140943750000005,13.514844347872758L57.377615625000004,10.323483984076034L57.50848125,11.408969545770177L57.795271875000005,13.865683700453989L57.798056249999995,15.863765304108863L57.8593125,22.055287103744572L58.05421875,18.565175277195397L58.199006250000004,15.61742569182106L58.207359375,13.293719455145515L58.313165625,11.366176741132113L58.37720625,5.714466438692859L58.39948125,7.416612771419613L58.5275625,23.65491456052738L58.75588125,21.579863856467746L58.808784375,15.38894921166024L59.638528125,9.741289634655494L59.7861,14.981338452124286L59.8417875,3.3899066975489824L59.928103125,5.336357865992378L59.953162500000005,14.842317846474971L60.047831249999994,18.396509315058342L60.379171875,27.38701284059967L60.585215625000004,14.520472604474602L61.169934375,12.056958548292249L61.18385625,7.976253906129647L61.64049375,9.99585562013253L61.7128875,13.285901970541463L62.06371875,14.432784117800285L63.124565624999995,7.206855617406016L63.698146875,12.113041258072094L63.870778125,7.113224072236974L64.13529375,18.06713950621171L64.210471875,14.067478630697572L64.26894375,11.168516057153726L64.30235625,20.936213239152014L64.344121875,23.32981532494686L65.15994375,29.680965221258774L65.44395,24.749111274182457L65.56089375,24.975641343325172L65.70289687500001,25.180451085995852L65.7669375,21.875549467900154L65.93121562500001,19.222349751905508L66.29596875,23.243273362119556L66.50201249999999,19.356710448208524L67.04775,20.684098895578778L67.440346875,23.74726531112875L67.64360624999999,27.554186435270413L67.716,24.23088552342871L67.76611875,28.39986029686742L67.930396875,31.856842749516087L68.069615625,23.238195630580137L68.584725,16.86828051020896L68.60143124999999,15.014930898177477L68.6849625,19.387373573948974L68.710021875,25.877857520602173L68.737865625,22.06253427274018L68.994028125,26.86200532387555L69.0190875,28.614238402752584L69.077559375,29.865851145060617L69.255759375,29.109356447037463L69.3086625,19.903148391481107L69.85996875000001,20.9190921425967L70.1105625,18.20477793108316L70.35001875,17.044877002665093L70.51151250000001,24.535931727969537L70.926384375,24.8916304571036L70.93195312499999,22.413952091921896L71.02105312500001,25.77509646714104L71.6698125,28.868516466205893L71.7366375,30.616410510120794L72.374259375,25.438530416035135L72.658265625,29.263032082580274L72.71673750000001,30.665238961147924L73.087059375,25.96776686169102L73.28753437499999,18.843601489657534L73.34879062499999,30.291258011268205L73.52420625,28.98129762111834L73.799859375,29.207742091823686L74.334459375,29.73823978586539L74.646309375,21.189685748767143L74.77995937499999,25.180574428423352L74.89690312500001,30.167964613765932L75.36189375000001,34.45287621680062L75.44820937499999,24.864304344831872L75.843590625,21.0621756989963L75.9911625,24.97176389942808L76.060771875,36.636165739564234L76.122028125,43.565685487834166L76.4143875,36.22399026310628L76.69004062500001,36.987298947344684L76.729021875,34.11347826766864L76.80976875,40.49557705507084L76.83204375000001,34.628944532039206L76.912790625,32.90345346355848L77.18844375,28.164274942341578L77.83163437500001,22.56494511684896L78.01261875,30.29532696410357L78.143484375,29.94856026110655L78.697575,20.602069272623112L78.84793125,19.7106620507923L79.21825312499999,31.168541676881475L79.61085,32.32072609042083L80.315296875,33.22994617149207L80.62993125,31.69195302317525L81.0698625,29.704150206701538L81.217434375,31.923709768335634L81.501440625,32.887056049921476L82.225378125,27.20572854437532L82.528875,33.591912777703946L82.56785625,38.69480385802439L82.78225312500001,34.40859811963323L83.10245625,42.67652618920151L83.35861874999999,39.47528729509519L83.51732812499999,32.45747668944522L83.628703125,38.32697867494459L83.67882187500001,36.0676589372421L83.70388125,32.27288187014714L83.91549375,31.89945879170224L84.21063749999999,30.622968092842456L84.218990625,39.87211509769509L84.2329125,48.306679386746985L84.430603125,44.30205934624997L84.756375,45.353152302854696L84.88167187500001,40.889257634866986L85.032028125,49.642490743130374L85.0348125,45.545457903826836L85.09606875,50.85336091475761L85.14061875,45.25136672471213L85.700278125,37.117487758317395L85.70863125,44.68181183523731L85.84506562499999,46.033418724044274L85.911890625,45.96462753750794L86.538375,52.23707406515296L86.71657499999999,51.01489470114293L86.897559375,47.10933022930547L86.96159999999999,51.31217950995361L87.1954875,50.176161091354395L87.20384062500001,32.414985472953454L87.2177625,33.308839228581405L87.40431562500001,31.270179444318295L87.45443437499999,36.046363871305346L87.771853125,31.091828310346113L88.211784375,35.7505864614215L88.52920312500001,47.430124323074686L88.601596875,35.04587597595597L88.66006875,38.006219279201495L88.67677499999999,37.33560519204438L89.11670625000001,49.34078725721976L89.782171875,54.652613312655944L89.9130375,41.72815034734794L90.01884374999999,51.96287955473913L90.09680625,57.608745742997826L90.414225,51.17108513588387L90.6147,45.428461008069974L91.230046875,46.09995657960127L91.43887500000001,51.97050876995653L91.68946874999999,49.61925896694369L92.26861875,51.99819943273132L92.2964625,50.57769636242032L92.39113125,56.56929455630048L92.418975,58.902847314428L92.49136874999999,48.296210926668934L92.616665625,54.68154084725174L92.68070625,47.38537456460259L92.88953437500001,52.49753123910536L93.07330312500001,58.70007255111918L93.38793749999999,50.52370199265617L93.74990625,44.481070508028296L93.780534375,44.724056612050354L93.83622187499999,52.21927438587696L94.49611875000001,47.7531255744045L94.88871562499999,52.84767893347843L94.99730625,59.27167270140902L95.078053125,42.442325774009696L95.32029374999999,45.23735494860882L95.45394375000001,47.03046989741583L95.45951249999999,47.078343828750285L95.56531875,49.63722007834869L95.62935937499999,39.67778808890157L96.219646875,41.56009471311526L96.397846875,43.054367081687985L96.670715625,48.18459011215603L96.69299062500001,59.190790651415945L97.177471875,45.3415777169053L97.26935625,48.74079893921122L97.47540000000001,50.669891231291L97.583990625,50.15305189389604L97.82344687499999,51.37083114932814L98.096315625,58.692853638534764L98.157571875,60.47896453740996L98.3775375,52.1057775658205L98.541815625,51.485624081320324L98.859234375,48.181311090395894L98.90100000000001,49.775444128377885L99.36320625,54.80659459978327L99.7140375,46.718931702557434L99.811490625,58.030940438148015L100.017534375,61.658098015919634L100.42126875,54.45322602911908L100.49087812500001,56.1201266900149L100.669078125,47.492254637175286L100.708059375,42.62459029107897L101.08116562500001,52.794408516351695L101.359603125,49.62566709593791L101.54615625000001,45.166491516717755L102.456646875,57.08220067452037L102.45943125,60.71063407827637L102.540178125,58.286102021649796L102.545746875,47.12772491635469L102.8214,49.25122541167954L103.41725625,49.87178957002531L103.43396249999999,45.92866922713619L103.45066874999999,44.00788174846156L103.46180625000001,41.13743330124712L103.464590625,43.93055382727139L103.78479375,43.55493073610928L104.427984375,45.77317115940066L104.700853125,41.44879992810999L104.72869687500001,43.8574282000946L104.7481875,53.117142822572795L104.79830625,58.2491158614846L105.318984375,50.47006255136681L105.5723625,56.4594582477184L105.66703125000001,51.76223087629178L105.71715,52.711045839809366L106.505128125,53.932328989989685L106.700034375,62.567329455571645L107.02580625,65.39392221892314L107.062003125,73.38790292578933L107.31816562499999,69.07072869851653L107.39891250000001,65.72961288498851L107.507503125,57.54912741723201L108.50709375,68.37562288587814L108.5794875,67.69126046578732L108.693646875,69.81940695303237L108.76325625000001,73.66457877786988L108.80780625,70.20092509953565L109.15028437500001,65.07154855225845L109.322915625,67.24431482079909L109.902065625,67.29591396098144L109.94661562499999,67.37498843280194L110.152659375,54.20576013680594L110.29187812500001,57.202092119683265L110.670553125,65.01370001039008L110.89608750000001,66.68653681894799L110.898871875,65.26459158551259L111.375,67.0731707807707L111.38892187500001,67.5650500946869L111.461315625,67.07374884800062L111.6311625,64.66636347177526L111.85948125,54.8999844061011L112.051603125,59.07676483504518L112.1657625,64.41701490117471L112.28549062500001,72.00330329659101L112.653028125,72.00062904904462L112.68365625,71.4109399302811L113.0790375,76.55260935433935L113.34076875,74.22586534586983L113.37975,60.91849348628319L113.42986875000001,59.84687616827035L114.451734375,54.6422478060706L115.28983124999999,68.62709774532786L115.392853125,77.28865099963534L116.0973,74.88007318470406L116.40915,71.99973505731539L116.59013437499999,66.09937314322593L116.60962500000001,65.80752695305748L116.63189999999999,73.35936240546897L116.76555,75.60619455864824L116.790609375,71.04059581950615L116.95488750000001,64.46350857339488L116.991084375,66.31080270554435L117.42823125,64.41060515147103L117.520115625,58.918768127669814L118.154953125,68.52190634863669L118.45288125,79.07455352031612L118.773084375,84.02974899957631L118.90951875,80.18607721409067L119.06544375,85.92767997404951L119.43298125,81.51920797589862L119.45525625,91.47570533307626L119.73369375,95.0812201069594L119.82279375,92.76183001002474L120.15135000000001,91.99968631393031L120.226528125,85.27954969993853L120.23209687500001,74.12774545854965L120.48269062499999,84.29794544509534L120.677596875,83.01246275904005L120.772265625,88.82968317808047L120.850228125,84.13740936261713L121.228903125,67.84985085764242L121.48506562499999,80.0227650580793L121.75515,83.63450143636535L121.780209375,79.09625854180848L121.813621875,83.13334672092853L121.86652500000001,82.49560639279923L121.913859375,86.18196412472135L122.064215625,90.10596180309612L122.097628125,82.27005735455143L122.1672375,86.50416296013606L122.27025937500001,93.64248536297562L122.55983437500001,86.12553818754515L122.6127375,90.04411884072054L122.90509687500001,88.07720486115494L123.52044375,92.66978405829582L123.57891562500001,79.33132515305236L123.73205625,87.85725256081959L123.974296875,92.6694539909074L123.97708125,81.97507521436832L124.0828875,82.92092219211891L124.180340625,85.19072889538381L124.692665625,84.85960135262275L125.61707812499999,88.29464453180435L125.789709375,94.30201805013137L126.00410624999999,92.4299784183664L126.224071875,86.60144301207673L126.28254375,87.80769539169391L126.30481875000001,83.34848403305796L126.346584375,93.25059042057322L126.63615937499999,94.42490379272456L126.641728125,93.99529791711237L126.89232187500001,88.92787520106218L127.443628125,100.1933054352694L127.46311875,94.59709661858969L127.6468875,95.6830782150108L127.660809375,97.73876150010464L127.950384375,98.44360025704798L127.99771875,100.34109243519806L128.184271875,101.34160280606604L128.76620624999998,101.79425985092628L128.81075625,97.00828506103646L128.846953125,92.72235810799793L128.94440625000001,92.74481421710091L129.0168,89.90425266566167L129.665559375,96.0464035081735L129.832621875,94.65491134091108L129.916153125,100.5660855490549L129.96905625,100.12453283716243L130.216865625,100.8157120064007L130.361653125,102.70467332364593L130.44796875,98.29942495665833L130.606678125,104.97942772741662L131.013196875,107.0127265064633L131.336184375,96.90898214622304L131.42806875,99.25322908045231L132.132515625,90.42272540839672L132.227184375,96.24879021294211L132.9928875,97.81319538061032L133.30473750000002,98.26382239944432L134.18460000000002,106.37315464972967L134.337740625,112.57888951360229L134.37950625,110.84546232170125L134.666296875,110.61980349435L134.872340625,111.40288492821392L134.916890625,116.9702029533152L134.94751875,117.74373814705876L135.2649375,113.12847188525386L135.434784375,118.89711656990441L135.43756875,109.64489039507518L135.5990625,116.3069099583224L135.65475,115.69954174382875L135.988875,111.4615655190319L136.38147187500002,117.28499472509908L136.44829687499998,113.80538445979921L136.826971875,111.97922538483566L137.094271875,113.90045707441357L137.25855,112.7184568505505L137.289178125,114.13486026500115L138.079940625,106.70445084896852L138.38900625,104.17663746662903L138.46696875,110.82270678280408L138.60897187499998,117.17506691256334L138.87905625,118.36094006661078L138.965371875,125.76935339791261L138.97929374999998,126.61112499038242L139.026628125,126.09177598877416L139.2744375,125.57955389771644L140.042925,118.75796521780991L140.577525,123.6618339499147L140.6109375,112.67817163304522L141.02024062499999,118.15289528953073L141.048084375,122.89677805376272L141.064790625,124.57218313361206L141.075928125,127.4508220818672L141.16224375,127.7825208286663L141.1678125,128.59656454074369L141.20679375,124.0719395975483L141.2235,127.82139577218047L141.426759375,124.2470310727645L142.1145,114.95515954589015L142.359525,117.87964810102783L142.43191875,119.09676076272804L142.6825125,113.15418938448667L142.757690625,118.56108526911142L142.952596875,119.57864854804407L143.141934375,127.7773075610432L143.370253125,128.71605691864042L143.503903125,123.2408380808213L143.54845312499998,131.28133677354128L144.428315625,129.144282843737L144.80420625,132.94272557020525L144.823696875,136.5743005345091L145.16060625,134.9453157841351L145.22743125000002,136.81905138749127L145.29425625,137.22222584747553L145.4668875,136.8673653598528L145.731403125,139.679765625954L146.04046875,141.54300230138867L146.0905875,137.40184515295115L146.67530625,139.54062225279242L146.948175,134.303562472012L147.47163749999999,135.5459191001785L147.518971875,139.69577749543444L147.6275625,141.401256478707L148.34593125,142.925887827811L148.89166875,142.24170655121688L149.01418125,145.17065961084145L149.111634375,142.65454316345884L149.261990625,142.1017580040609L149.351090625,139.383913822233L149.551565625,143.2229688902607L149.62674375,142.68279608066797L149.63788125,141.43662848280258L149.752040625,142.16678532552262L149.81329687500002,142.2596136189141L150.289425,140.12410256976713L150.30056249999998,142.71455442326706L150.336759375,145.2638979421871L150.559509375,146.48405411062728L150.570646875,139.72311754907193L150.67088437499999,142.36980888617197L150.913125,138.6739150977317L150.932615625,135.8339052316424L151.055128125,137.13735143563204L151.2027,139.56453191502771L151.98510937499998,140.47409815206706L152.152171875,140.5950817026715L152.386059375,141.10223990140895L152.58931875,140.10391503061393L152.6283,138.16439675932617L153.0403875,140.87606895600965L153.43019999999999,144.646018262227L154.00378125,143.58719073147955L154.028840625,144.3727562572906L154.1764125,145.37532363314568L154.55230312499998,147.05973688580804L154.652540625,147.1094987480155L154.97274374999998,144.92678556597144L155.47671562500003,146.73790332891673L155.57416875,146.70367310686288L156.016884375,143.52752632307494L156.17559375,144.21787905195532L156.2702625,144.57471306260393L156.395559375,145.78018621007928L156.49579687500002,149.0300372974051L156.81043125,149.8775530147465L156.85498124999998,149.93661237616064L157.074946875,150.9639995574912L157.31440312499998,150.0212181416296L157.86292500000002,150.4298133493623L159.26068125,150.12320472844448L159.380409375,149.08130962756206L159.547471875,149.92753944246246L159.603159375,150.62121424136066L159.67555312500002,151.49525876027246L159.926146875,151.61150264007372L160.070934375,144.2129480268518L160.237996875,145.35711878651472L160.33823437499998,145.9375076230638L160.48580625,149.53031943297432L160.49694375,150.1875633190622L160.53314062500002,151.3037387483295L160.57212187500002,151.23884930393237L160.63894687500002,150.0400617883679L160.67235937499998,148.42314316076332L160.78095,149.62833260294474L160.81993125,150.84521924080985L161.16519375000001,149.57817162584806L161.18189999999998,147.4149398820335L161.296059375,144.55873092129818L161.34617812500002,147.41600378082478L161.41021874999998,147.99450508647226L161.7053625,147.72866675189286L161.99772187500002,147.34109854535555L162.04227187499998,148.60829079777423L162.12580312499998,150.13227574207122L162.92491875,151.80532271251107L162.94719375,149.41168326094927L163.30359375,152.11657817669263L163.8437625,152.75410362891438L164.22800625,151.33901854683913L165.03547500000002,152.5398383322281L165.18583125,153.33313848269052L165.255440625,153.96482902347736L165.606271875,154.93948151223947L165.83180625,153.30557295611314L166.001653125,154.57553906957835L166.05455625000002,151.01623889461393L167.07920625,149.80920927324243L167.218425,151.24914641562333L167.477371875,152.9493908247793L167.521921875,153.792953640439L167.605453125,151.68808870750738L167.80871249999998,152.9216962027442L168.12613125000001,152.93464943811662L168.37115625,152.60867813648275L168.56049375,153.0319455902302L168.813871875,153.7365361139312L168.819440625,150.94314984168938L168.836146875,152.63110432313158L169.342903125,152.370773846492L169.788403125,153.95345785410956L169.888640625,150.38774427993485L170.21998125,149.91675611972573L170.47892812499998,150.38777634579588L170.63206875,152.63370665414766L170.79913125,152.30309935490337L171.063646875,152.6650818656365L171.93515625,152.86643897039366L172.05766875,154.37606919327015L172.06880625,154.53422701152724L172.09108125,152.78937730842492L172.50316875,152.4544738691301L172.634034375,153.956872702256L172.817803125,153.9079242634994L172.823371875,152.92417545491324L173.29114687499998,154.3448640275459L173.4442875,154.22315511015174L173.52224999999999,153.4285374934345L173.61413437500002,154.62142046689846L173.708803125,152.89591120672225L174.05128125,153.4417288367625L174.10139999999998,154.12119134717605L174.416034375,153.6750879405679L174.53019375000002,153.53054508944768L174.86431875,153.4744155851024L175.15389374999998,153.54425924585226L175.24577812500002,154.53979910302436L175.423978125,155.29792816093433L175.45182187499998,154.80152366131495L175.67178750000002,155.48982007067997L175.713553125,154.24254016532075L175.816575,154.88438954403335L176.532159375,155.04192480097362L176.554434375,155.7038219723089L176.7187125,156.08761628676143L176.75769375000002,156.21462509516232L177.21990000000002,156.48605911196375L177.38139375,156.54078040537672L177.400884375,156.78472040507248L177.412021875,155.74649280364696L177.423159375,155.48298074609835L177.81575625,153.08124249716926L177.907640625,154.1501533288364L177.93826875,153.5430175276935L178.400475,154.77679373538007L178.442240625,155.04325329486886L178.5007125,154.38625221017003L178.542478125,155.25640355442243L178.87103437500002,155.48624096163658L179.22465,155.5065466159904L179.49751875,155.07447470383417L179.940234375,153.68869022434097L180.001490625,154.00103469017566L180.124003125,154.42395533833488L180.201965625,155.4101094691674L180.446990625,155.57580228169775L180.808959375,156.01736563038364L180.93425624999998,156.33267506090704L181.52175937500002,156.10607859703708L181.81690312499998,156.51657749520658L181.82525625000002,154.67273489629574L181.89765,153.5860740347281L181.983965625,154.9107552222752L182.48236874999998,155.30958558796942L182.496290625,154.08473783437483L182.518565625,154.7812479795201L182.969634375,151.2803692950496L183.11720625,153.27030712741143L183.197953125,153.17380584072689L183.40678125,154.57486063479158L183.66572812500002,155.23248938459213L183.67408125,155.87854181938255L184.022128125,155.56343920324383L184.6152,155.65991010163674L184.707084375,156.10004989249333L184.82402812499998,156.09815396276474L184.9716,156.4368719961161L185.18042812500002,155.39148204398361L185.219409375,156.00538919650717L185.2389,156.46339122915927L185.46165,155.9601638486637L185.960053125,156.28546596242936L186.0519375,156.31512470203657L186.152175,156.50942217720748L186.550340625,156.46254872349937L186.6533625,156.53452776003172L187.213021875,156.5799670019545L187.279846875,156.67914792603062L187.385653125,156.62287779573248L187.402359375,156.29432714643858L187.858996875,156.2797859526603L187.90076249999998,156.557732549021L187.99543125,156.8219734016507L188.66925,156.70771222410494L188.97553125,156.86643516686823L189.58809374999998,156.93762225865504L190.158890625,156.98334626828665L190.30089375,156.80529400208027L190.562625,156.55742592149412L190.88561249999998,156.771210242043L191.038753125,156.8758268380571L191.122284375,156.9890651666008L191.133421875,156.6920434713999L191.339465625,156.9052982830477L191.41464374999998,156.99753136125244L191.461978125,156.87865614480057L191.5315875,156.9325530470277L191.765475,157.0292370383299L192.16085625,156.59882801170986L192.20540625,156.36910689405246L192.22211249999998,156.66023344351206L192.85695,156.77670043392456L192.987815625,156.93772878096914L193.324725,156.8675069023393L193.72567500000002,156.9595905371896L193.85932499999998,157.05399007175274L193.903875,157.07692575160732L193.98740625,157.12145698906536L194.173959375,157.1261816553961L194.212940625,157.15577728370724L194.597184375,157.14723212076774L194.928525,156.4370592911078L195.14570625000002,156.19535895813652L195.404653125,155.6594167128957L195.42135937499998,156.11554257821942L195.482615625,156.389892854343L195.733209375,156.60315631568344L196.01443125,156.02266238395242L196.228828125,156.30030620546398L196.30679062500002,156.1113087966015L196.5657375,156.49385485443307L196.68268125,156.42066020564417L196.77456562499998,156.74371244787565L196.95555,156.80479924819946L197.331440625,156.7520531753419L197.75188125,156.85306553407182L198.03031875,156.51512713551608L198.261421875,156.7120309960394L198.45911249999997,156.90667638740797L198.72919687499999,157.02892593390825L198.76260937499998,157.10592940325364L198.84057187500002,157.11287535366088L198.91018125,157.1208383584013L199.17748125,157.15009022678925L199.584,157.16420638037408L199.77055312500002,157.1940156036903L200.862028125,157.21824960161948L200.934421875,157.21325870818663L201.08477812499999,157.2031057226215L201.54420000000002,157.10230367393223L201.91173750000002,157.14940972730668L201.99805312499998,157.18530001002105L202.02032812500002,157.20688686185167L202.90854375,157.21839407479558L203.07282187500002,157.22883693051097L203.150784375,157.23817098057606L203.3262,157.23345595975925L203.8719375,157.2323864648475L204.25618125,157.24037622680888L204.4510875,157.246334573651L204.453871875,157.24736857861802L204.68775937499998,157.2378540025555L204.96898125,157.24009230833147L205.1193375,157.203102866991L205.12769062499999,157.2215531628745L205.433971875,157.2321209222782L205.578759375,157.23914573253722L205.667859375,157.2417982311379L206.0103375,157.2432205827957L206.26928437499998,157.2260922964912L206.31661875,157.23145293692158L206.402934375,157.2392557261719L206.525446875,157.2425266115227L206.597840625,157.24796874862403L206.67023437499998,157.24906567414266L207.46656562500002,157.25154673822678L207.494409375,157.2493085625772L207.49997812499998,157.2529927107931L207.956615625,157.2519863680692L208.51905937499998,157.24785257112853L208.79749687499998,157.2511709530011L208.828125,157.25241476585595L208.90608749999998,157.25466362169092L208.97848125,157.25585183116226L209.510296875,157.2563662877683L209.59104374999998,157.25467171445035L209.6411625,157.25237899582174L209.80265624999998,157.25417004202015L209.872265625,157.25541223246196L210.08109374999998,157.2538002959535L210.167409375,157.25386842324795L210.22588125000001,157.25451974595822L210.29549062499999,157.25479962501817L210.50153437499998,157.2555782885679L210.61847812500002,157.25658928860406L210.802246875,157.25628745662047L211.0444875,157.25630419059274L211.35355312500002,157.2552327225586L211.4677125,157.25594218560178L211.723875,157.25629577224933L211.748934375,157.25516505958905L212.44224375,157.25531826410705L213.09935625,157.25720442280374L213.413990625,157.25470625211477L213.803803125,157.2556951302678L214.25208750000002,157.2544698261481L214.33005,157.25539090512274L214.35232499999998,157.25586810582956L214.45534687499998,157.23768287264008L215.14587187499998,157.14566334688533L215.62199999999999,157.17063525874593L215.71666875,157.13258624328364L215.825259375,157.08839468339812L216.37656562499998,157.14997610741386L217.390078125,157.1717868802334L217.91354062500002,157.20431006652254L217.916325,157.21698328173056L217.963659375,157.22988712264694L218.1279375,157.2380572142061L218.23374375,157.24345640028213L218.375746875,157.24239173448893L218.60685,157.24570852724779L218.82403125000002,157.24967177483884L219.105253125,157.24991432263485L219.44773124999998,157.25322466414022L219.767934375,157.2547947430389L219.93221250000002,157.2549685245712L220.44175312500002,157.254794779621L220.4445375,157.2538684092159L220.48073437500003,157.2535756687262L220.87333124999998,157.2560087859208L221.01255,157.25317917562955L221.232515625,157.25102646492545L221.2909875,157.25396404054987L221.694721875,157.2517848875464L221.80888124999998,157.25415925415933L221.884059375,157.25381157589987L221.96759062499999,157.25553705145495L222.18755625,157.2506453905374L222.44371875000002,157.2522001708885L222.51332812500002,157.2532573796687L223.1064,157.2552715053977L223.9417125,157.2537634895014L224.02524375,157.25589755414015L224.03638125,157.2561414861037L224.10320625,157.2562736620742L224.122696875,157.25595624061614L224.222934375,157.25778434474012L224.3649375,157.2527169038493L224.495803125,157.25684832540773L224.57655000000003,157.25830678407155L224.78259375000002,157.25919746978062L225.297703125,157.2599941315221L225.5232375,157.26003772910659L226.29172499999999,157.26005929265386L226.40866875,157.26069614896045L226.7260875,157.26084901689936L226.80405,157.2610606719578L226.834678125,157.260492286187L227.07691875,157.2593970895966L227.14931249999998,157.2586020654716L227.47230000000002,157.25895123621663L227.675559375,157.25813216990335L227.90109375,157.2564075185023L228.05701875,157.25713031203742L228.11270625,157.25821711541727L228.199021875,157.2567827449298L228.260278125,157.25712352823345L228.3521625,157.2572692025966L228.42177187500002,157.2565217780787L228.430125,157.2576572537737L228.867271875,157.25741713630572L229.08445312499998,157.25734498393615L229.14292500000002,157.25924249803896L229.145709375,157.2592171139884L229.151278125,157.25859493589778L229.435284375,157.2583328547014L229.4436375,157.2580404029495L229.55501249999998,157.2590694063606L229.87243125,157.26033443806756L229.891921875,157.25970252262258L230.331853125,157.25851706954228L230.749509375,157.25810141406265L230.9583375,157.25833703936283L231.128184375,157.2576729743488L231.60152812500002,157.25713382233567L231.98855625000002,157.25848862501928L232.965871875,157.25958497132652L233.1858375,157.26069479830542L233.27215312500002,157.2605994662241L233.299996875,157.26055557755282L233.31391875,157.25978520708114L233.44478437499998,157.25898574149744L233.589571875,157.25925816277038L233.611846875,157.25950577664196L233.6758875,157.2603560950006L233.75941874999998,157.2610882104067L233.918128125,157.26097273282232L234.0100125,157.25928507250643L234.25782187500002,157.25906931879422L234.38311875,157.26037888709033L234.408178125,157.2613872270631L234.42766875,157.26086224724546L235.01238750000002,157.26078045813864L236.101078125,157.26092675098695L236.29598437500002,157.26093696716885L236.396221875,157.26001582630266L236.671875,157.26003555611737L236.92246875,157.26013451770837L237.0616875,157.2605055738053L237.148003125,157.26123525034362L237.905353125,157.2611304864265L237.97774687499998,157.2616726297327L238.027865625,157.2608163119304L238.25061562500002,157.26064588254377L238.423246875,157.25931330852558L238.612584375,157.2602075695397L239.18895,157.25928285369912L239.255775,157.25930371579108L239.26134374999998,157.2593409554691L239.36715,157.26027534244815L239.612175,157.26074138351646L239.66786249999998,157.26121938054555L239.731903125,157.26155897839314L240.06324375,157.26147287299776L240.65631562500002,157.26106049598442L240.79831875000002,157.26151875894843L241.19926875000002,157.26168679042786L241.313428125,157.26171379847938L241.330134375,157.26175293835036L241.419234375,157.26120846927975L241.65590625000002,157.26135746816718L241.97889375000003,157.26093121124077L241.998384375,157.25949962608846L242.0290125,157.25975447688006L242.443884375,157.260036570228L242.79193125,157.2610282197494L243.0091125,157.2604575625L243.1427625,157.26082861473395L243.35994375,157.2603936814319L243.52143750000002,157.26045451557926L243.58826249999998,157.25901802111068L243.657871875,157.25991976222096L243.71634375,157.25934074819884L244.03097812500002,157.25996048144847L244.47369375,157.2607545415822L244.593421875,157.26051703240242L244.749346875,157.26024142655444L245.283946875,157.26008819705285L245.30900625,157.2601659550911L245.400890625,157.260822971645L245.57909062500002,157.25731592633795" style="fill: none;" fill="none"></path></g></g></g></g><g opacity="0.2"><g><g><g><path stroke="rgb(0, 119, 187)" stroke-width="2px" d="M29.336174999999997,-9.36060775754351L29.455903125,8.594868929642775L29.47539375,-3.631638752710484L29.60904375,13.900511811590865L29.645240625,-21.162348117058503L29.83179375,-23.04102841723297L29.85406875,9.960247704966218L30.093525,-6.422387716049923L30.66710625,-0.32653372796870633L30.81189375,22.780471182738747L30.9177,-3.004283241306729L31.129312499999997,12.553704596641996L31.354846875,6.363598475025762L31.5079875,-15.019297759772986L31.566459375,-19.05813759979274L31.700109375,9.50812101715969L31.7196,38.55160429183809L31.842112500000002,10.854693890652731L32.1651,10.464562234986165L32.552128125,5.986461053085011L32.67185625,33.24456707822781L32.680209375000004,34.86845963055061L32.9781375,-10.292501707871741L33.070021875,15.220029964008276L33.181396875,13.811274585210626L33.5127375,24.887974197458906L33.6798,12.785339408657626L33.966590625,20.305427028694098L34.14200625,32.383854345108084L34.267303125,-7.86175980605185L34.495621875,28.279726975493972L34.626487499999996,47.73980469691258L34.762921875,0.5383502830647869L34.76570625,37.189670335915366L34.79911875,11.587186696214825L34.893787499999995,6.10291703955995L35.319796874999994,22.241356946527958L35.4729375,27.980344048597757L36.104990625,26.886074903524595L36.30268125,18.984104447066784L36.645159375,11.359582557239477L36.837281250000004,22.83175681034725L36.88183125,29.66820010128949L36.884615625,22.294529022855908L37.046109375,30.636604450436103L37.917618749999995,0.5622413944867075L37.9231875,6.652506338846368L38.062406249999995,9.894350887586679L38.260096875,4.562215704056956L38.463356250000004,5.133774514827468L38.482846875,26.000920356561746L38.780775,22.097553312157597L38.8587375,23.777992457772307L39.0814875,32.589149177488366L39.254118749999996,18.41362360699311L39.526987500000004,31.32993879872892L39.627225,11.045553289353848L39.863896874999995,32.43861994333565L40.095,9.755491857934334L40.3511625,11.684040019909554L40.398496875,20.307676706670076L40.841212500000005,10.781966019835751L40.8634875,20.794497647012285L41.175337500000005,7.984432871349995L41.214318750000004,-7.030714701240249L41.684878125000004,28.192516802706663L42.06076875,21.890500918858592L42.13873125,25.99160528369248L42.726234375000004,15.930166594684124L42.765215625,2.3506885170936584L43.294246875,8.176756904150063L43.656215625,21.693970456926376L43.778728125,-12.153395491548702L44.0154,15.295898010333385L44.171325,23.076186665851214L44.190815625,21.802130755864923L44.291053125,-7.425626922605744L44.522156249999995,19.198069913312793L45.106875,54.97531977006132L45.159778125,15.340270564994887L45.354684375000005,7.73761273299655L45.596925,15.691232046319396L46.14823125,28.40099867888624L46.228978125000005,38.804411854387986L46.496278124999996,25.282722379805314L46.529690625,42.9750218950212L46.92785625,-2.873391821152643L47.239706250000005,26.391872207323722L47.651793749999996,3.7624551835987345L47.765953125,11.843521097674966L48.39800625,15.54444055838719L48.615187500000005,14.935504285411705L48.623540625000004,35.25077599866525L48.66530625,23.634786394114307L48.757190625,-11.173309220828935L49.5284625,9.34729247602325L49.55630625,2.172237498478759L49.653759375,24.737691021834816L50.093690624999994,7.860419372924511L50.30251875,17.239104230370803L50.6199375,-13.273746840655804L50.734096875000006,0.1187501893275423L51.129478125,28.507483436415605L51.1434,-4.501643124553897L51.168459375,4.620051175355911L51.50536875,20.029161886415558L51.5332125,-6.270346979507133L51.792159375000004,10.016911468986013L52.56343125,0.74049322286414L52.70265,35.63493194720812L52.722140624999994,13.402899447207655L52.883634375,5.960578039288521L53.6270625,-11.226821092267818L54.2062125,32.69351314484246L54.445668749999996,20.66635973896418L54.481865625000005,17.014523096175658L54.7965,14.321588256499842L54.84661875,28.555851512899007L55.250353125,19.01040927548377L55.428553125,26.439092010673566L56.4559875,3.207979864958264L56.475478125,10.170908956685011L56.798465625,6.435986550731809L57.021215624999996,11.485681694621855L57.140943750000005,17.554680151864886L57.377615625000004,5.536443438380957L57.50848125,13.037197888311427L57.795271875000005,17.550754932479727L57.798056249999995,18.86088770959113L57.8593125,31.342569803198185L58.05421875,13.330007537371591L58.199006250000004,11.195801313759555L58.207359375,9.808160100132227L58.313165625,8.474862670111992L58.37720625,-2.7630990149660026L58.39948125,9.969832270509675L58.5275625,48.012367244188994L58.75588125,18.46728780037828L58.808784375,6.102577244448997L59.638528125,1.2698002691484247L59.7861,22.84141167832747L59.8417875,-13.997240934313982L59.928103125,8.25603461865751L59.953162500000005,29.10125781719884L60.047831249999994,23.72779651793342L60.379171875,40.872768128911666L60.585215625000004,-4.7793377497129885L61.169934375,8.361687464018669L61.18385625,1.8551969428857233L61.64049375,13.025258191136867L61.7128875,18.22097149615487L62.06371875,16.15310733868845L63.124565624999995,-3.6320371331853782L63.698146875,19.4723197190712L63.870778125,-0.3865017065157362L64.13529375,34.49801265717382L64.210471875,8.067987317426354L64.26894375,6.820072196837944L64.30235625,35.58775901214944L64.344121875,26.920218453639094L65.15994375,39.20769006572664L65.44395,17.35133035356801L65.56089375,25.315436447039247L65.70289687500001,25.487665700001866L65.7669375,16.91819704075655L65.93121562500001,15.242550177913587L66.29596875,29.2746587774406L66.50201249999999,13.526866077341978L67.04775,22.675181566634123L67.440346875,28.342014934453704L67.64360624999999,33.26456812148294L67.716,19.245934155666177L67.76611875,34.65332245702546L67.930396875,37.042316428489166L68.069615625,10.310224952176213L68.584725,7.313407829652243L68.60143124999999,12.234906480130237L68.6849625,25.946037587606256L68.710021875,35.61358344058197L68.737865625,16.33954940094717L68.994028125,34.061211900578606L69.0190875,31.242588021068126L69.077559375,31.743270258522706L69.255759375,27.974614400002697L69.3086625,6.093836308146529L69.85996875000001,22.443007769270093L70.1105625,14.133306613812858L70.35001875,15.305025610037987L70.51151250000001,35.77251381592618L70.926384375,25.425178550804667L70.93195312499999,18.697434544149377L71.02105312500001,30.816813029969744L71.6698125,33.508646464803164L71.7366375,33.23825157599317L72.374259375,17.671710274906623L72.658265625,34.999784582398014L72.71673750000001,32.76854927899938L73.087059375,18.921558712505643L73.28753437499999,8.1573534316073L73.34879062499999,47.462742793684214L73.52420625,27.016357035893538L73.799859375,29.54740879788168L74.334459375,30.533986326927952L74.646309375,8.36685469311973L74.77995937499999,31.166907447907665L74.89690312500001,37.64904989177983L75.36189375000001,40.88024362135265L75.44820937499999,10.481446536878758L75.843590625,15.358982730242946L75.9911625,30.836146200075746L76.060771875,54.13276849976845L76.122028125,53.95996511023907L76.4143875,25.211447426014487L76.69004062500001,38.132261973702256L76.729021875,29.802747248154564L76.80976875,50.068725236174146L76.83204375000001,25.828995747491717L76.912790625,30.315216860837417L77.18844375,21.05550716051625L77.83163437500001,14.165950378610045L78.01261875,41.89089973498551L78.143484375,29.42841020661097L78.697575,6.582332789897919L78.84793125,18.3735512180461L79.21825312499999,48.35536111601526L79.61085,34.04900271072984L80.315296875,34.59377629309893L80.62993125,29.3849633007L81.0698625,26.722445981990976L81.217434375,35.25304911078678L81.501440625,34.33207547230026L82.225378125,18.683737286056093L82.528875,43.171189127696906L82.56785625,46.34914047850503L82.78225312500001,27.97928951204652L83.10245625,55.07841829355392L83.35861874999999,34.67342895393571L83.51732812499999,21.930760780970267L83.628703125,47.131231653193645L83.67882187500001,32.6786793306884L83.70388125,26.58071626950471L83.91549375,31.33932417403493L84.21063749999999,28.70823204455277L84.218990625,53.745835604973976L84.2329125,60.95852582032483L84.430603125,38.29512928550443L84.756375,46.929791737761775L84.88167187500001,34.193415632885376L85.032028125,62.77234040552543L85.0348125,39.39990864487158L85.09606875,58.815215431153774L85.14061875,36.84837543964386L85.700278125,24.916669308725336L85.70863125,56.02829795061715L85.84506562499999,48.060829057254736L85.911890625,45.86144075770346L86.538375,61.64574385662047L86.71657499999999,49.181625655127895L86.897559375,41.25098352154926L86.96159999999999,57.616453430925816L87.1954875,48.47213346345557L87.20384062500001,5.773222045352068L87.2177625,34.64961986202333L87.40431562500001,28.212189767923636L87.45443437499999,43.210640511785954L87.771853125,23.660024968907237L88.211784375,42.73872368803457L88.52920312500001,64.94943111555445L88.601596875,16.469503455277962L88.66006875,42.446734234069794L88.67677499999999,36.32968406130871L89.11670625000001,67.34856035498282L89.782171875,62.62035239581019L89.9130375,22.34145589938596L90.01884374999999,67.31497336582592L90.09680625,66.07754502538592L90.414225,41.51459422521293L90.6147,36.81452481634915L91.230046875,47.10719993689822L91.43887500000001,60.77633705548942L91.68946874999999,46.09238426242439L92.26861875,55.566610131412745L92.2964625,48.446941756953805L92.39113125,65.55669184712073L92.418975,62.4031764516193L92.49136874999999,32.38625634503035L92.616665625,64.25953572812594L92.68070625,36.44112514062889L92.88953437500001,60.165766250859534L93.07330312500001,68.00388451913994L93.38793749999999,38.25914615496166L93.74990625,35.417123281086496L93.780534375,45.08853576808341L93.83622187499999,63.462101046616844L94.49611875000001,41.053902357195824L94.88871562499999,60.489508972089325L94.99730625,68.9076633533049L95.078053125,17.198305382910707L95.32029374999999,49.42989871050749L95.45394375000001,49.72014232062632L95.45951249999999,47.15015472575195L95.56531875,53.475534452746324L95.62935937499999,24.73864010473093L96.219646875,44.38355464943582L96.397846875,45.295775634547084L96.670715625,55.87992465785809L96.69299062500001,75.70009146030579L97.177471875,24.567758315139358L97.26935625,53.83963077267012L97.47540000000001,53.56352966941066L97.583990625,49.377792887803594L97.82344687499999,53.19750003247626L98.096315625,69.67588737234473L98.157571875,63.15813088572275L98.3775375,39.5459971084363L98.541815625,50.55539385457007L98.859234375,43.22484160400927L98.90100000000001,52.16664368535083L99.36320625,62.35332030689137L99.7140375,34.58743735671872L99.811490625,74.99895354153382L100.017534375,67.09883438257707L100.42126875,43.64591804891825L100.49087812500001,58.620477681358665L100.669078125,34.55044655791588L100.708059375,35.32309377193451L101.08116562500001,68.0491358542608L101.359603125,44.87255496531725L101.54615625000001,38.47772814788753L102.456646875,74.95576441122425L102.45943125,66.15328418391032L102.540178125,54.64930393670997L102.545746875,30.39015925841199L102.8214,52.43647615466682L103.41725625,50.80263580754399L103.43396249999999,40.01398871280253L103.45066874999999,41.12670053044956L103.46180625000001,36.83176063042549L103.464590625,48.12023461630775L103.78479375,42.9914960993661L104.427984375,49.10053179433776L104.700853125,34.96224308117397L104.72869687500001,47.4703706080715L104.7481875,67.00671475629014L104.79830625,65.94707541985231L105.318984375,38.801482586190104L105.5723625,65.44355179224578L105.66703125000001,44.716389819151836L105.71715,54.13426828508577L106.505128125,55.76425371526016L106.700034375,75.51983015394461L107.02580625,69.63381136395037L107.062003125,85.37887398608858L107.31816562499999,62.59496735760735L107.39891250000001,60.71793916469647L107.507503125,45.27839921559725L108.50709375,84.61536608884734L108.5794875,66.66471683565113L108.693646875,73.01162668389993L108.76325625000001,79.43233651512614L108.80780625,65.00544458203433L109.15028437500001,57.377483731342686L109.322915625,70.50346422361004L109.902065625,67.37331267125491L109.94661562499999,67.49360014053268L110.152659375,34.45191769281195L110.29187812500001,61.69659009399928L110.670553125,76.7311118464503L110.89608750000001,69.19579203178486L110.898871875,63.13167373535948L111.375,69.78603957365785L111.38892187500001,68.30286906556124L111.461315625,66.33679697797118L111.6311625,61.05528540743722L111.85948125,40.25041580758989L112.051603125,65.3419354784613L112.1657625,72.42739000036899L112.28549062500001,83.38273588971546L112.653028125,71.99661767772503L112.68365625,70.52640625213584L113.0790375,84.26511349042671L113.34076875,70.73574933316559L113.37975,40.957435696903204L113.42986875000001,58.239450191251116L114.451734375,46.83530526277093L115.28983124999999,89.60437265421368L115.392853125,90.2809808810966L116.0973,71.2672064623071L116.40915,67.6792278662324L116.59013437499999,57.24883027209176L116.60962500000001,65.36975766780478L116.63189999999999,84.68711558408621L116.76555,78.97644278841716L116.790609375,64.19219771079305L116.95488750000001,54.597877704227976L116.991084375,69.08174390376857L117.42823125,61.560308820361065L117.520115625,50.68101259196799L118.154953125,82.92661368008703L118.45288125,94.90352427783526L118.773084375,91.46254221846661L118.90951875,74.42056953586224L119.06544375,94.5400841139878L119.43298125,74.9064999786723L119.45525625,106.41045136884269L119.73369375,100.48949226778414L119.82279375,89.28274486462277L120.15135000000001,90.85647076978866L120.226528125,75.19934477895085L120.23209687500001,57.40003909646638L120.48269062499999,99.55324542491388L120.677596875,81.08423872995708L120.772265625,97.5555138066411L120.850228125,77.09899863942218L121.228903125,43.41851310018036L121.48506562499999,98.28213635873463L121.75515,89.0521060037944L121.780209375,72.28889419997317L121.813621875,89.18897898960859L121.86652500000001,81.5389959006053L121.913859375,91.71150072260451L122.064215625,95.99195832065824L122.097628125,70.51620068173442L122.1672375,92.85532136851302L122.27025937500001,104.34996896723494L122.55983437500001,74.8501174243995L122.6127375,95.92198982048366L122.90509687500001,85.12683389180651L123.52044375,99.55865285400715L123.57891562500001,59.32363679518716L123.73205625,100.64614367247042L123.974296875,99.88775613603907L123.97708125,65.93350704955972L124.0828875,84.33969265874475L124.180340625,88.59543895028118L124.692665625,84.36291003848117L125.61707812499999,93.44720930057682L125.789709375,103.31307832762185L126.00410624999999,89.62191897071898L126.224071875,77.8586399026422L126.28254375,89.61707396111969L126.30481875000001,76.65966699510399L126.346584375,108.10375000184611L126.63615937499999,96.18637385095161L126.641728125,93.35088910369412L126.89232187500001,81.32674112698686L127.443628125,117.09145078658022L127.46311875,86.20278339357013L127.6468875,97.31205060964244L127.660809375,100.8222864277454L127.950384375,99.50085839246297L127.99771875,103.18733070242322L128.184271875,102.84236836236799L128.76620624999998,102.47324541821662L128.81075625,89.82932287620174L128.846953125,86.29346767844012L128.94440625000001,92.7784983807554L129.0168,85.6434103385028L129.665559375,105.25962977194125L129.832621875,92.56767309001751L129.916153125,109.43284686127058L129.96905625,99.46220376932374L130.216865625,101.8524807602581L130.361653125,105.53811529951379L130.44796875,91.69155240617692L130.606678125,114.99943188355408L131.013196875,110.06267467503334L131.336184375,81.75336560586261L131.42806875,102.76959948179623L132.132515625,77.17696990031335L132.227184375,104.98788741976023L132.9928875,100.15980313211266L133.30473750000002,98.93976292769528L134.18460000000002,118.53715302515775L134.337740625,121.8874918094112L134.37950625,108.24532153384969L134.666296875,110.28131525332317L134.872340625,112.57750707900979L134.916890625,125.32117999096712L134.94751875,118.90404093767413L135.2649375,106.20557249254651L135.434784375,127.55008359688026L135.43756875,95.76655113283131L135.5990625,126.29993930319324L135.65475,114.78848942208829L135.988875,105.1046011818366L136.38147187500002,126.02013853419986L136.44829687499998,108.58596906184944L136.826971875,109.23998677239031L137.094271875,116.78230460878048L137.25855,110.9454565147559L137.289178125,116.25946538667712L138.079940625,95.55883672491959L138.38900625,100.3849173931198L138.46696875,120.79181075706664L138.60897187499998,126.70360710720223L138.87905625,120.13974979768199L138.965371875,136.88197339486538L138.97929374999998,127.87378237908706L139.026628125,125.31275248636183L139.2744375,124.81122076112986L140.042925,108.52558219795013L140.577525,131.0176370480719L140.6109375,96.202678157741L141.02024062499999,126.364980774259L141.048084375,130.01260220011073L141.064790625,127.08529075338609L141.075928125,131.76878050424986L141.16224375,128.28006894886494L141.1678125,129.8176301088598L141.20679375,117.2850021827552L141.2235,133.4455800341287L141.426759375,118.88548402364057L142.1145,101.01735225557867L142.359525,122.2663809337343L142.43191875,120.92242975527834L142.6825125,104.24033231712464L142.757690625,126.6714290960485L142.952596875,121.10499346644309L143.141934375,140.0752960805419L143.370253125,130.12418095503625L143.503903125,115.0280098240926L143.54845312499998,143.34208481262127L144.428315625,125.93870194903057L144.80420625,138.64038965990767L144.823696875,142.0216629809648L145.16060625,132.50183865857414L145.22743125000002,139.62965479252549L145.29425625,137.8269875374519L145.4668875,136.3350746284187L145.731403125,143.89836602510573L146.04046875,144.33785731454068L146.0905875,131.19010943029488L146.67530625,142.74878790255428L146.948175,126.44797280084136L147.47163749999999,137.40945404242828L147.518971875,145.92056508831834L147.6275625,143.95947495361582L148.34593125,145.21283485146705L148.89166875,141.21543463632568L149.01418125,149.56408920027835L149.111634375,138.88036849238497L149.261990625,141.27258026496403L149.351090625,135.30714754949116L149.551565625,148.98155149230215L149.62674375,141.87253686627892L149.63788125,139.56737708600446L149.752040625,143.2620205896027L149.81329687500002,142.39885605900136L150.289425,136.92083599604666L150.30056249999998,146.6002322035169L150.336759375,149.08791322056723L150.559509375,148.31428836328755L150.570646875,129.58171270673887L150.67088437499999,146.33984589182202L150.913125,133.13007441507133L150.932615625,131.57389043250845L151.055128125,139.09252074161648L151.2027,143.20530263412124L151.98510937499998,141.83844750762606L152.152171875,140.7765570285782L152.386059375,141.86297719951511L152.58931875,138.60642772442142L152.6283,135.2551193523945L153.0403875,144.9435772510349L153.43019999999999,150.30094222155296L154.00378125,141.99894943535847L154.028840625,145.55110454600717L154.1764125,146.8791746969283L154.55230312499998,149.58635676480156L154.652540625,147.18414154132674L154.97274374999998,141.65271579290533L155.47671562500003,149.45457997333466L155.57416875,146.6523277737821L156.016884375,138.76330614739305L156.17559375,145.2534081452759L156.2702625,145.10996407857684L156.395559375,147.58839593129233L156.49579687500002,153.9048139283938L156.81043125,151.1488265907586L156.85498124999998,150.02520141828185L157.074946875,152.5050803294871L157.31440312499998,148.60704601783718L157.86292500000002,151.04270616096133L159.26068125,149.66329179706776L159.380409375,147.51846697623841L159.547471875,151.19688416481304L159.603159375,151.66172643970802L159.67555312500002,152.80632553864012L159.926146875,151.78586845977568L160.070934375,133.11511610701888L160.237996875,147.0733749260091L160.33823437499998,146.8080908778874L160.48580625,154.91953714784015L160.49694375,151.17342914819406L160.53314062500002,152.97800189223037L160.57212187500002,151.14151513733668L160.63894687500002,148.24188051502117L160.67235937499998,145.99776521935647L160.78095,151.4361167662169L160.81993125,152.67054919760753L161.16519375000001,147.67760020340535L161.18189999999998,144.17009226631166L161.296059375,140.27441748019515L161.34617812500002,151.70191307011473L161.41021874999998,148.86225704494345L161.7053625,147.32990925002377L161.99772187500002,146.75974623554956L162.04227187499998,150.50907917640225L162.12580312499998,152.41825315851665L162.92491875,154.31489316817087L162.94719375,145.82122408360655L163.30359375,156.17392055030763L163.8437625,153.71039180724702L164.22800625,149.21639092372627L165.03547500000002,154.34106801031157L165.18583125,154.5230887083841L165.255440625,154.91236483465764L165.606271875,156.40146024538262L165.83180625,150.85471012192366L166.001653125,156.4804882397762L166.05455625000002,145.6772886321673L167.07920625,147.99866484118522L167.218425,153.4090521291946L167.477371875,155.49975743851329L167.521921875,155.0582978639286L167.605453125,148.53079130810997L167.80871249999998,154.77210744559935L168.12613125000001,152.95407929117533L168.37115625,152.11972118403193L168.56049375,153.6668467708514L168.813871875,154.7934218994827L168.819440625,146.7530704333266L168.836146875,155.16303604529497L169.342903125,151.98027813153263L169.788403125,156.32748386553592L169.888640625,145.03917391867273L170.21998125,149.21027387941203L170.47892812499998,151.0943066849011L170.63206875,156.00260211667532L170.79913125,151.80718840603691L171.063646875,153.2080556317362L171.93515625,153.16847462752938L172.05766875,156.64051452758494L172.06880625,154.77146373891284L172.09108125,150.17210275377147L172.50316875,151.95211871018788L172.634034375,156.21047095194484L172.817803125,153.8345016053645L172.823371875,151.44855224203397L173.29114687499998,156.47589688649492L173.4442875,154.04059173406048L173.52224999999999,152.2366110683587L173.61413437500002,156.41074492709433L173.708803125,150.30764731645792L174.05128125,154.26045528182294L174.10139999999998,155.14038511279634L174.416034375,153.0059328306557L174.53019375000002,153.31373081276737L174.86431875,153.39022132858454L175.15389374999998,153.64902473697697L175.24577812500002,156.0331088887825L175.423978125,156.43512174779931L175.45182187499998,154.05691691188582L175.67178750000002,156.5222646847275L175.713553125,152.37162030728197L175.816575,155.8471636121022L176.532159375,155.278227686384L176.554434375,156.69666772931183L176.7187125,156.66330775844025L176.75769375000002,156.4051383077636L177.21990000000002,156.89321013716594L177.38139375,156.6228623454962L177.400884375,157.1506304046161L177.412021875,154.18915140150867L177.423159375,155.0877126597754L177.81575625,149.47863512377566L177.907640625,155.75351957633717L177.93826875,152.6323138259791L178.400475,156.62745804690994L178.442240625,155.44294263410202L178.5007125,153.4007505831218L178.542478125,156.56163057080104L178.87103437500002,155.83099707245773L179.22465,155.53700509752122L179.49751875,154.42636683559977L179.940234375,151.61001350510114L180.001490625,154.46955138892775L180.124003125,155.0583363105737L180.201965625,156.88934066541614L180.446990625,155.82434150049326L180.808959375,156.67971065341246L180.93425624999998,156.80563920669212L181.52175937500002,155.76618390123218L181.81690312499998,157.1323258424608L181.82525625000002,151.9069709979295L181.89765,151.95608274237665L181.983965625,156.89777700359588L182.48236874999998,155.90783113651074L182.496290625,152.247466203983L182.518565625,155.82601319723796L182.969634375,146.02905126834392L183.11720625,156.25521387595413L183.197953125,153.02905391070007L183.40678125,156.67644282588864L183.66572812500002,156.21893250929296L183.67408125,156.8476204715682L184.022128125,155.0907852790357L184.6152,155.80461644922616L184.707084375,156.76025957877815L184.82402812499998,156.09531006817187L184.9716,156.94494904614314L185.18042812500002,153.82339711578484L185.219409375,156.92624992529252L185.2389,157.15039427813744L185.46165,155.20532277792032L185.960053125,156.77341913307788L186.0519375,156.35961281144733L186.152175,156.8008683899639L186.550340625,156.39223854293718L186.6533625,156.64249631483025L187.213021875,156.64812586483862L187.279846875,156.82791931214484L187.385653125,156.53847260028527L187.402359375,155.80150117249772L187.858996875,156.25797416199285L187.90076249999998,156.97465244356218L187.99543125,157.21833468059518L188.66925,156.53632045778633L188.97553125,157.10451958101314L189.58809374999998,157.04440289633527L190.158890625,157.0519322827341L190.30089375,156.53821560277075L190.562625,156.18562380061485L190.88561249999998,157.09188672286635L191.038753125,157.0327517320782L191.122284375,157.15892265941633L191.133421875,156.24651092859858L191.339465625,157.2251805005194L191.41464374999998,157.13588097855953L191.461978125,156.70034332012276L191.5315875,157.0133984003684L191.765475,157.17426302528324L192.16085625,155.95321447177977L192.20540625,156.0245252175664L192.22211249999998,157.09692326770144L192.85695,156.95140091954332L192.987815625,157.17927130153598L193.324725,156.76217408439456L193.72567500000002,157.09771598946503L193.85932499999998,157.19558937359741L193.903875,157.11132927138917L193.98740625,157.1882538452525L194.173959375,157.13326865489216L194.212940625,157.20017072617398L194.597184375,157.1344143763585L194.928525,155.37180004661786L195.14570625000002,155.8328084586796L195.404653125,154.85550334503446L195.42135937499998,156.79973137620496L195.482615625,156.8014182685284L195.733209375,156.92305150769405L196.01443125,155.15192148635592L196.228828125,156.7167719377313L196.30679062500002,155.82781268330777L196.5657375,157.06767394118046L196.68268125,156.31086823246088L196.77456562499998,157.22829081122285L196.95555,156.8964294486852L197.331440625,156.67293406605555L197.75188125,157.00458407216664L198.03031875,156.00821953768255L198.261421875,157.0073867868244L198.45911249999997,157.1986444744608L198.72919687499999,157.21230025365873L198.76260937499998,157.22143460727173L198.84057187500002,157.12329427927176L198.91018125,157.13278286551193L199.17748125,157.19396802937112L199.584,157.18538061075137L199.77055312500002,157.23872943866465L200.862028125,157.2546005985133L200.934421875,157.2057723680373L201.08477812499999,157.18787624427387L201.54420000000002,156.95110060089831L201.91173750000002,157.22006880736834L201.99805312499998,157.23913543409262L202.02032812500002,157.23926713959762L202.90854375,157.23565489421148L203.07282187500002,157.24450121408404L203.150784375,157.25217205567375L203.3262,157.226383428534L203.8719375,157.23078222247986L204.25618125,157.25236086975096L204.4510875,157.25527209391421L204.453871875,157.24891958606852L204.68775937499998,157.22358213846175L204.96898125,157.24344976699535L205.1193375,157.14761870498032L205.12769062499999,157.24922860669972L205.433971875,157.24797256138382L205.578759375,157.24968294792572L205.667859375,157.24577697903894L206.0103375,157.24535411028236L206.26928437499998,157.20039986703452L206.31661875,157.23949389756712L206.402934375,157.25095991004736L206.525446875,157.2474329395489L206.597840625,157.25613195427607L206.67023437499998,157.2507110624206L207.46656562500002,157.25526833435296L207.494409375,157.24595129910284L207.49997812499998,157.25851893311696L207.956615625,157.25047685398332L208.51905937499998,157.24165187571757L208.79749687499998,157.25614852580992L208.828125,157.2542804851382L208.90608749999998,157.25803690544345L208.97848125,157.2576341453693L209.510296875,157.2571379726773L209.59104374999998,157.25212985447345L209.6411625,157.2489399178788L209.80265624999998,157.2568566113178L209.872265625,157.2572755181247L210.08109374999998,157.2513823911908L210.167409375,157.25397061418963L210.22588125000001,157.25549673002368L210.29549062499999,157.25521944360807L210.50153437499998,157.25674628389245L210.61847812500002,157.25810578865833L210.802246875,157.25583470864507L211.0444875,157.25632929155114L211.35355312500002,157.25362552050737L211.4677125,157.25700638016656L211.723875,157.25682615222067L211.748934375,157.25346899059866L212.44224375,157.255548070884L213.09935625,157.26003366084876L213.413990625,157.25095899608135L213.803803125,157.25717844749735L214.25208750000002,157.2526318699685L214.33005,157.25677252358471L214.35232499999998,157.2565839068898L214.45534687499998,157.21040502285592L215.14587187499998,157.00763405825313L215.62199999999999,157.20809312653688L215.71666875,157.07551272009025L215.825259375,157.0221073435698L216.37656562499998,157.24234824343748L217.390078125,157.2045030394627L217.91354062500002,157.25309484595627L217.916325,157.23599310454256L217.963659375,157.24924288402158L218.1279375,157.25031235154484L218.23374375,157.2515551793962L218.375746875,157.24079473579914L218.60685,157.25068371638608L218.82403125000002,157.25561664622538L219.105253125,157.25027814432892L219.44773124999998,157.25819017639824L219.767934375,157.25714986138692L219.93221250000002,157.2552291968697L220.44175312500002,157.25453416219565L220.4445375,157.25247885360827L220.48073437500003,157.25313655799164L220.87333124999998,157.25965846171272L221.01255,157.2489347601927L221.232515625,157.2477973988692L221.2909875,157.25837040398656L221.694721875,157.24851615804113L221.80888124999998,157.25772080407873L221.884059375,157.2532900585107L221.96759062499999,157.2581252647876L222.18755625,157.243307899161L222.44371875000002,157.25453234141517L222.51332812500002,157.254843192839L223.1064,157.25829269399122L223.9417125,157.251501465657L224.02524375,157.2590986510982L224.03638125,157.25650738404906L224.10320625,157.2564719260299L224.122696875,157.25548010842908L224.222934375,157.26052650092606L224.3649375,157.2451157425131L224.495803125,157.2630454577454L224.57655000000003,157.26049447206728L224.78259375000002,157.2605334983442L225.297703125,157.2611891241343L225.5232375,157.26010312548334L226.29172499999999,157.2600916379748L226.40866875,157.26165143342035L226.7260875,157.26107831880773L226.80405,157.26137815454544L226.834678125,157.2596397075308L227.07691875,157.257754294711L227.14931249999998,157.25740952928413L227.47230000000002,157.2594749923342L227.675559375,157.25690357043342L227.90109375,157.2538205414007L228.05701875,157.25821450234008L228.11270625,157.25984732048704L228.199021875,157.25463118919862L228.260278125,157.25763470318893L228.3521625,157.25748771414132L228.42177187500002,157.25540064130192L228.430125,157.25936046731616L228.867271875,157.2570569601037L229.08445312499998,157.2572367553818L229.14292500000002,157.26208876919318L229.145709375,157.25917903791262L229.151278125,157.25766166876184L229.435284375,157.25793973290675L229.4436375,157.25760172532165L229.55501249999998,157.2606129114773L229.87243125,157.262231985628L229.891921875,157.25875464945514L230.331853125,157.2567388899218L230.749509375,157.25747793084324L230.9583375,157.25869047731308L231.128184375,157.25667687682773L231.60152812500002,157.256325094316L231.98855625000002,157.26052082904468L232.965871875,157.2612294907874L233.1858375,157.26235953877372L233.27215312500002,157.26045646810215L233.299996875,157.26048974454594L233.31391875,157.2586296513736L233.44478437499998,157.25778654312185L233.589571875,157.25966679467976L233.611846875,157.2598771974493L233.6758875,157.2616315725386L233.75941874999998,157.26218638351588L233.918128125,157.26079951644576L234.0100125,157.2567535820326L234.25782187500002,157.25874568822584L234.38311875,157.26234323953452L234.408178125,157.26289973702225L234.42766875,157.26007477751895L235.01238750000002,157.2606577744784L236.101078125,157.26114619025938L236.29598437500002,157.26095229144173L236.396221875,157.25863411500336L236.671875,157.26006515083947L236.92246875,157.26028296009488L237.0616875,157.2610621579507L237.148003125,157.26232976515112L237.905353125,157.2609733405508L237.97774687499998,157.26248584469198L238.027865625,157.25953183522697L238.25061562500002,157.26039023846383L238.423246875,157.25731444749832L238.612584375,157.26154896106084L239.18895,157.2578957799383L239.255775,157.25933500892896L239.26134374999998,157.2593968149861L239.36715,157.2616769229167L239.612175,157.26144044511898L239.66786249999998,157.26193637608915L239.731903125,157.26206837516457L240.06324375,157.26134371490465L240.65631562500002,157.26044193046445L240.79831875000002,157.26220615339437L241.19926875000002,157.26193883764702L241.313428125,157.26175431055668L241.330134375,157.2618116481568L241.419234375,157.26039176567383L241.65590625000002,157.26158096649834L241.97889375000003,157.26029182585117L241.998384375,157.25735224835992L242.0290125,157.26013675306746L242.443884375,157.26045971024993L242.79193125,157.2625156940315L243.0091125,157.2596015766259L243.1427625,157.26138519308486L243.35994375,157.25974128147888L243.52143750000002,157.26054576680022L243.58826249999998,157.2568632794078L243.657871875,157.2612723738864L243.71634375,157.2584722271656L244.03097812500002,157.2608900813229L244.47369375,157.26194563178282L244.593421875,157.26016076863274L244.749346875,157.25982801778247L245.283946875,157.25985835280048L245.30900625,157.26028259214846L245.400890625,157.2618084964759L245.57909062500002,157.25205535837736" style="fill: none;" fill="none"></path></g></g></g></g></g></g><g transform="translate(51, 176)" clip-path="url(#clip_1)"><clipPath id="clip_1"><rect width="278" height="23"></rect></clipPath><g><g><line x1="0" y1="0" x2="0" y2="5" style="visibility: inherit;" fill="rgb(0, 0, 0)" stroke="rgb(204, 204, 204)" stroke-width="1px"></line><line x1="27.84375" y1="0" x2="27.84375" y2="5" style="visibility: inherit;" fill="rgb(0, 0, 0)" stroke="rgb(204, 204, 204)" stroke-width="1px"></line><line x1="55.6875" y1="0" x2="55.6875" y2="5" style="visibility: inherit;" fill="rgb(0, 0, 0)" stroke="rgb(204, 204, 204)" stroke-width="1px"></line><line x1="83.53125" y1="0" x2="83.53125" y2="5" style="visibility: inherit;" fill="rgb(0, 0, 0)" stroke="rgb(204, 204, 204)" stroke-width="1px"></line><line x1="111.375" y1="0" x2="111.375" y2="5" style="visibility: inherit;" fill="rgb(0, 0, 0)" stroke="rgb(204, 204, 204)" stroke-width="1px"></line><line x1="139.21875" y1="0" x2="139.21875" y2="5" style="visibility: inherit;" fill="rgb(0, 0, 0)" stroke="rgb(204, 204, 204)" stroke-width="1px"></line><line x1="167.0625" y1="0" x2="167.0625" y2="5" style="visibility: inherit;" fill="rgb(0, 0, 0)" stroke="rgb(204, 204, 204)" stroke-width="1px"></line><line x1="194.90625" y1="0" x2="194.90625" y2="5" style="visibility: inherit;" fill="rgb(0, 0, 0)" stroke="rgb(204, 204, 204)" stroke-width="1px"></line><line x1="222.75" y1="0" x2="222.75" y2="5" style="visibility: inherit;" fill="rgb(0, 0, 0)" stroke="rgb(204, 204, 204)" stroke-width="1px"></line><line x1="250.59375" y1="0" x2="250.59375" y2="5" style="visibility: inherit;" fill="rgb(0, 0, 0)" stroke="rgb(204, 204, 204)" stroke-width="1px"></line><line x1="278.4375" y1="0" x2="278.4375" y2="5" style="visibility: inherit;" fill="rgb(0, 0, 0)" stroke="rgb(204, 204, 204)" stroke-width="1px"></line></g><g transform="translate(0, 8)"><text x="0" y="0" dx="0em" dy="0.95em" style="text-anchor: middle; visibility: hidden; font-family: Roboto, sans-serif; font-size: 12px; font-weight: 200;" fill="rgb(33, 33, 33)" stroke="none" stroke-width="1px">-10k</text><text x="27.84375" y="0" dx="0em" dy="0.95em" style="text-anchor: middle; visibility: inherit; font-family: Roboto, sans-serif; font-size: 12px; font-weight: 200;" fill="rgb(33, 33, 33)" stroke="none" stroke-width="1px">0</text><text x="55.6875" y="0" dx="0em" dy="0.95em" style="text-anchor: middle; visibility: inherit; font-family: Roboto, sans-serif; font-size: 12px; font-weight: 200;" fill="rgb(33, 33, 33)" stroke="none" stroke-width="1px">10k</text><text x="83.53125" y="0" dx="0em" dy="0.95em" style="text-anchor: middle; visibility: inherit; font-family: Roboto, sans-serif; font-size: 12px; font-weight: 200;" fill="rgb(33, 33, 33)" stroke="none" stroke-width="1px">20k</text><text x="111.375" y="0" dx="0em" dy="0.95em" style="text-anchor: middle; visibility: inherit; font-family: Roboto, sans-serif; font-size: 12px; font-weight: 200;" fill="rgb(33, 33, 33)" stroke="none" stroke-width="1px">30k</text><text x="139.21875" y="0" dx="0em" dy="0.95em" style="text-anchor: middle; visibility: inherit; font-family: Roboto, sans-serif; font-size: 12px; font-weight: 200;" fill="rgb(33, 33, 33)" stroke="none" stroke-width="1px">40k</text><text x="167.0625" y="0" dx="0em" dy="0.95em" style="text-anchor: middle; visibility: inherit; font-family: Roboto, sans-serif; font-size: 12px; font-weight: 200;" fill="rgb(33, 33, 33)" stroke="none" stroke-width="1px">50k</text><text x="194.90625" y="0" dx="0em" dy="0.95em" style="text-anchor: middle; visibility: inherit; font-family: Roboto, sans-serif; font-size: 12px; font-weight: 200;" fill="rgb(33, 33, 33)" stroke="none" stroke-width="1px">60k</text><text x="222.75" y="0" dx="0em" dy="0.95em" style="text-anchor: middle; visibility: inherit; font-family: Roboto, sans-serif; font-size: 12px; font-weight: 200;" fill="rgb(33, 33, 33)" stroke="none" stroke-width="1px">70k</text><text x="250.59375" y="0" dx="0em" dy="0.95em" style="text-anchor: middle; visibility: inherit; font-family: Roboto, sans-serif; font-size: 12px; font-weight: 200;" fill="rgb(33, 33, 33)" stroke="none" stroke-width="1px">80k</text><text x="278.4375" y="0" dx="0em" dy="0.95em" style="text-anchor: middle; visibility: hidden; font-family: Roboto, sans-serif; font-size: 12px; font-weight: 200;" fill="rgb(33, 33, 33)" stroke="none" stroke-width="1px">90k</text></g><line x1="0" y1="0" x2="278.4375" y2="0" fill="rgb(0, 0, 0)" stroke="rgb(204, 204, 204)" stroke-width="1px"></line></g></g></g></g></svg>